<?xml version="1.0" standalone="no"?>
<!DOCTYPE svg PUBLIC "-//W3C//DTD SVG 1.1//EN" "http://www.w3.org/Graphics/SVG/1.1/DTD/svg11.dtd" >
<svg xmlns="http://www.w3.org/2000/svg" xmlns:xlink="http://www.w3.org/1999/xlink" version="1.1">
<metadata>
Created by FontForge 20170731 at Sun Apr 17 14:24:40 2022
 By Aleksey,,,
Copyright (c) 2022 by Thanos Poulakidas. All rights reserved.
</metadata>
<defs>
<font id="Geom-Light" horiz-adv-x="596" >
  <font-face 
    font-family="Geom"
    font-weight="300"
    font-stretch="normal"
    units-per-em="1000"
    panose-1="0 0 0 0 0 0 0 0 0 0"
    ascent="750"
    descent="-250"
    x-height="481"
    cap-height="705"
    bbox="-164 -247 1104 971"
    underline-thickness="50"
    underline-position="-150"
    unicode-range="U+000D-FB02"
  />
<missing-glyph horiz-adv-x="515" 
d="M-6 720h525v-720h-525v720zM421 663h-330l165 -244zM454 123v476l-160 -239zM421 57l-165 246l-165 -246h330zM59 123l160 237l-160 240v-477z" />
    <glyph glyph-name=".notdef" horiz-adv-x="515" 
d="M-6 720h525v-720h-525v720zM421 663h-330l165 -244zM454 123v476l-160 -239zM421 57l-165 246l-165 -246h330zM59 123l160 237l-160 240v-477z" />
    <glyph glyph-name=".null" horiz-adv-x="0" 
 />
    <glyph glyph-name=".null" horiz-adv-x="0" 
 />
    <glyph glyph-name="uni000D" unicode="&#xd;" horiz-adv-x="280" 
 />
    <glyph glyph-name="space" unicode=" " horiz-adv-x="280" 
 />
    <glyph glyph-name="exclam" unicode="!" horiz-adv-x="237" 
d="M167 705l-4 -84l-17 -418h-55l-18 418l-4 84h98zM59 50q0 23 18 41t42 18q25 0 42 -18t17 -41q0 -27 -17 -43.5t-42 -16.5t-42.5 16.5t-17.5 43.5z" />
    <glyph glyph-name="quotedbl" unicode="&#x22;" horiz-adv-x="401" 
d="M53 443l26 265h91v0l-12 -53l-50 -212h-55zM258 708h91v0l-12 -53l-50 -212h-55z" />
    <glyph glyph-name="numbersign" unicode="#" horiz-adv-x="640" 
d="M144 195h-105v71h116l28 180h-111v72h121l29 188h72l-27 -188h163l27 188h72l-26 -188h99v-72h-110l-29 -180h106v-72h-117l-28 -194h-73l28 194h-163l-29 -194h-73zM255 446l-28 -180h163l29 180h-164z" />
    <glyph glyph-name="dollar" unicode="$" horiz-adv-x="633" 
d="M291 -4q-36 0 -68 8t-60 22t-52 32.5t-43 39.5l48 53q32 -33 75.5 -58t99.5 -28v257q-45 16 -81 35t-61 44t-38.5 55.5t-13.5 68.5q0 39 15 71t41 56t61.5 39t76.5 19v67h65v-66q66 -6 105 -32t60 -55l-51 -52q-18 26 -48.5 44t-66.5 22v-249q104 -37 152.5 -83
t48.5 -114q0 -39 -15 -73t-41.5 -60t-63 -42t-80.5 -21v-91h-65v91zM474 179q0 15 -4.5 31.5t-17.5 33t-36 31.5t-60 27v-236q61 9 89.5 39.5t28.5 73.5zM179 534q0 -46 30.5 -72.5t81.5 -49.5v228q-55 -6 -83.5 -34.5t-28.5 -71.5z" />
    <glyph glyph-name="percent" unicode="%" horiz-adv-x="814" 
d="M362 544q0 -38 -12 -71.5t-34 -58t-52.5 -39t-67.5 -14.5t-67 14t-52 38.5t-34 58t-12 71.5q0 37 12.5 70t34.5 57.5t52.5 38.5t66.5 14q38 0 68 -14t52 -38t33.5 -56.5t11.5 -70.5zM295 539q0 57 -28.5 90.5t-70.5 33.5q-45 0 -71.5 -34t-26.5 -86q0 -55 27 -88.5
t72 -33.5q47 0 72.5 33.5t25.5 84.5zM781 169q0 -37 -12 -70t-34 -57.5t-52.5 -38.5t-67.5 -14t-67.5 14t-52 38.5t-33 57t-11.5 69.5q0 38 12.5 71t34.5 57t52 38t66 14q37 0 67.5 -14t52 -38t33.5 -56.5t12 -70.5zM714 168q0 54 -27.5 87t-71.5 33q-45 0 -71 -33t-26 -87
q0 -56 28 -87.5t70 -31.5q46 0 72 34t26 85zM195 -19l-66 15l482 727l66 -14z" />
    <glyph glyph-name="ampersand" unicode="&#x26;" horiz-adv-x="658" 
d="M244 352q-60 -26 -92.5 -64t-32.5 -92q0 -29 10 -54.5t28.5 -44t44.5 -29.5t57 -11q50 0 90.5 26.5t72.5 66.5zM630 347q-24 -50 -51 -97.5t-57 -91.5l133 -146l-92 -17l-93 96q-46 -48 -97.5 -75t-118.5 -27q-47 0 -87.5 14.5t-70.5 40.5t-47 64t-17 84q0 78 45 131
t125 83q-31 38 -50 75.5t-19 79.5q0 36 13.5 65t36.5 49.5t55 32t69 11.5q38 0 69 -12t53.5 -32.5t35 -48t12.5 -58.5q0 -67 -43.5 -109t-113.5 -71l154 -171q25 38 45 75t38 79zM306 651q-40 0 -66.5 -24.5t-26.5 -64.5q0 -29 17.5 -59t47.5 -65q50 19 84.5 51.5t34.5 73.5
q0 40 -26.5 64t-64.5 24z" />
    <glyph glyph-name="quotesingle" unicode="'" horiz-adv-x="222" 
d="M78 708h92v0l-12 -53l-50 -212h-55z" />
    <glyph glyph-name="parenleft" unicode="(" horiz-adv-x="356" 
d="M149 284q0 -118 46 -212.5t140 -185.5l-41 -50q-107 88 -167 198.5t-60 249.5q0 136 58 246t167 207l44 -51q-94 -91 -140.5 -187t-46.5 -215z" />
    <glyph glyph-name="parenright" unicode=")" horiz-adv-x="360" 
d="M210 284q0 117 -44.5 213.5t-144.5 188.5l45 51q110 -98 168 -209t58 -244q0 -137 -60 -247t-167 -201l-43 50q98 91 143 187t45 211z" />
    <glyph glyph-name="asterisk" unicode="*" horiz-adv-x="360" 
d="M68 690l50 35l63 -81l61 81l50 -32l-61 -86l97 -34l-19 -58l-98 33v-108h-61v109l-99 -34l-20 58l100 35z" />
    <glyph glyph-name="plus" unicode="+" horiz-adv-x="575" 
d="M325 382h208v-74h-208v-208h-77v208h-206v74h206v207h77v-207z" />
    <glyph glyph-name="comma" unicode="," horiz-adv-x="195" 
d="M86 -139h-69l44 259h99z" />
    <glyph glyph-name="hyphen" unicode="-" horiz-adv-x="334" 
d="M302 234h-271v77h271v-77z" />
    <glyph glyph-name="period" unicode="." horiz-adv-x="211" 
d="M54 50q0 25 17.5 42.5t42.5 17.5q24 0 41.5 -17.5t17.5 -42.5q0 -24 -17.5 -42t-41.5 -18q-25 0 -42.5 18t-17.5 42z" />
    <glyph glyph-name="slash" unicode="/" horiz-adv-x="494" 
d="M67 -90l-68 13l429 860l69 -15z" />
    <glyph glyph-name="zero" unicode="0" horiz-adv-x="607" 
d="M303 643q-43 0 -76 -21.5t-55.5 -59.5t-34.5 -90.5t-12 -114.5q0 -67 11.5 -121.5t34.5 -93t56.5 -59.5t77.5 -21q43 0 76 21.5t55.5 60.5t34.5 92t12 116q0 65 -12 118.5t-35 91.5t-56.5 59.5t-76.5 21.5zM304 719q65 0 114.5 -26.5t83.5 -75t51 -116t17 -149.5
q0 -80 -17 -147t-50.5 -116t-83.5 -76t-116 -27q-65 0 -114.5 26t-83 74t-50.5 116t-17 152q0 80 17 147t50.5 115.5t83.5 75.5t115 27z" />
    <glyph glyph-name="one" unicode="1" horiz-adv-x="502" 
d="M301 0h-84v630h-108v78h192v-708z" />
    <glyph glyph-name="two" unicode="2" horiz-adv-x="579" 
d="M296 718q46 0 85 -14.5t67.5 -40t45 -60.5t16.5 -75q0 -52 -34 -112.5t-109 -149.5l-159 -190h316v-76h-477l254 310q63 78 91.5 131t28.5 95q0 20 -6.5 39t-21 34t-38 24t-58.5 9q-65 0 -99.5 -36t-45.5 -93h-93q18 107 78 156t159 49z" />
    <glyph glyph-name="three" unicode="3" horiz-adv-x="594" 
d="M302 442q48 -1 89 -16t71 -43t47 -67.5t17 -90.5q0 -49 -18.5 -92.5t-50.5 -76t-76.5 -51t-96.5 -18.5q-90 0 -151.5 47t-88.5 122l69 50q23 -69 64 -106t108 -37q33 0 61.5 11t49.5 31.5t33 49.5t12 66q0 42 -14 72t-38 48.5t-56.5 27t-70.5 8.5q-37 0 -72 -7l-11 45
l212 227h-306v76h412v-74z" />
    <glyph glyph-name="four" unicode="4" horiz-adv-x="609" 
d="M488 712v-486h98v-73h-98v-153h-82v153h-374l-16 76l345 483h127zM406 635l-293 -409h293v409z" />
    <glyph glyph-name="five" unicode="5" horiz-adv-x="588" 
d="M92 381l32 324h371l-7 -75h-296l-22 -206q29 9 54 14.5t53 5.5q50 0 94 -15.5t76.5 -44.5t51.5 -70t19 -92q0 -53 -18 -96.5t-51 -74t-79.5 -47.5t-103.5 -17q-72 0 -123.5 25.5t-98.5 70.5l49 56q37 -36 80 -56.5t93 -20.5q39 0 69.5 11.5t52.5 32.5t33.5 49.5
t11.5 62.5q0 33 -13.5 60.5t-37.5 48t-56.5 31.5t-70.5 11q-26 0 -50 -5t-48 -14z" />
    <glyph glyph-name="six" unicode="6" horiz-adv-x="559" 
d="M399 706l-206 -307q28 20 54 24.5t55 4.5q46 0 86.5 -15t71 -42.5t48 -67t17.5 -88.5q0 -50 -18.5 -92t-51 -72.5t-77 -47.5t-95.5 -17t-96 16t-78.5 47t-53 75t-19.5 100q0 27 6.5 51.5t18.5 51t30 55.5t42 65l171 259h95zM122 209q0 -31 12.5 -59t34 -48t51 -32
t62.5 -12q34 0 63 11.5t50 32t32.5 49t11.5 62.5q0 32 -11.5 59t-32 46.5t-49.5 30.5t-64 11q-36 0 -65.5 -12t-50.5 -32.5t-32.5 -48t-11.5 -58.5z" />
    <glyph glyph-name="seven" unicode="7" horiz-adv-x="587" 
d="M199 0h-93l344 630h-390v75h479v-76z" />
    <glyph glyph-name="eight" unicode="8" horiz-adv-x="572" 
d="M508 528q0 -55 -30.5 -94t-81.5 -65q65 -25 101.5 -70t36.5 -107q0 -46 -19 -83.5t-52.5 -64.5t-79 -41.5t-97.5 -14.5t-97.5 15.5t-78.5 42.5t-52 64t-19 80q0 63 36 107.5t101 72.5q-53 24 -81.5 65.5t-28.5 95.5q0 41 17.5 75.5t47.5 59t70 38.5t85 14q44 0 84.5 -14
t71 -39t48.5 -60t18 -77zM149 525q0 -27 11 -49t29.5 -38.5t43.5 -25.5t53 -9q29 0 54.5 9t44 25t29.5 39t11 50q0 26 -10.5 48t-29.5 38t-44.5 25t-54.5 9t-54 -9t-43.5 -25t-29 -38.5t-10.5 -48.5zM125 196q0 -28 11.5 -53t32.5 -43.5t50.5 -29t66.5 -10.5q36 0 66 10.5
t51 29t33 43.5t12 53q0 30 -12 54.5t-33.5 42.5t-51.5 28t-65 10t-64.5 -10t-51 -28t-33.5 -43t-12 -54z" />
    <glyph glyph-name="nine" unicode="9" horiz-adv-x="567" 
d="M170 -2l204 308q-27 -20 -50.5 -27t-54.5 -7q-46 0 -87 16t-72 44.5t-49 69t-18 88.5q0 49 18.5 91t51 73t76.5 48.5t95 17.5q53 0 98 -17t78 -48t52 -75.5t19 -100.5q0 -33 -8.5 -63.5t-22.5 -59t-31.5 -55.5t-35.5 -53l-170 -250h-93zM445 495q0 32 -12.5 59.5
t-34.5 48t-51 32.5t-62 12q-34 0 -63 -12t-49.5 -32.5t-32 -48.5t-11.5 -60t11.5 -59.5t32.5 -47.5t50 -31t63 -11q35 0 64 12t50 32.5t33 47.5t12 58z" />
    <glyph glyph-name="colon" unicode=":" horiz-adv-x="212" 
d="M54 51q0 25 16.5 42.5t44.5 17.5q23 0 41 -17.5t18 -42.5t-18 -43t-41 -18q-28 0 -44.5 18t-16.5 43zM54 431q0 25 16.5 42.5t44.5 17.5q23 0 41 -17.5t18 -42.5q0 -26 -18 -43.5t-41 -17.5q-28 0 -44.5 17.5t-16.5 43.5z" />
    <glyph glyph-name="semicolon" unicode=";" horiz-adv-x="198" 
d="M46 431q0 25 17 42.5t44 17.5q23 0 41.5 -17.5t18.5 -42.5q0 -26 -18.5 -43.5t-41.5 -17.5q-27 0 -44 17.5t-17 43.5zM88 -139h-70l43 259h101z" />
    <glyph glyph-name="less" unicode="&#x3c;" horiz-adv-x="616" 
d="M547 526l-387 -183l387 -185v-79l-478 228v71l478 228v-80z" />
    <glyph glyph-name="equal" unicode="=" horiz-adv-x="558" 
d="M516 513v-75h-474v75h474zM516 271v-75h-474v75h474z" />
    <glyph glyph-name="greater" unicode="&#x3e;" horiz-adv-x="615" 
d="M69 606l477 -227v-73l-477 -226v80l386 182l-386 183v81z" />
    <glyph glyph-name="question" unicode="?" horiz-adv-x="434" 
d="M200 641q-35 0 -73 -18.5t-74 -70.5v97q23 30 64.5 49t92.5 19q41 0 73.5 -12t55.5 -34t35.5 -52.5t12.5 -67.5q0 -58 -26 -100t-64 -77q-19 -17 -33 -33t-23 -33.5t-13.5 -38t-4.5 -47.5v-32h-82v62q0 32 8.5 58t22 47t30 38.5t33.5 33.5q28 26 49 52.5t21 62.5
q0 18 -6.5 35.5t-19.5 31t-33 22t-46 8.5zM127 50q0 23 18 41t42 18q25 0 43 -18t18 -41q0 -27 -18 -43t-43 -16q-24 0 -42 16t-18 43z" />
    <glyph glyph-name="at" unicode="@" horiz-adv-x="888" 
d="M449 457q-30 0 -56 -12.5t-45 -34t-30 -50.5t-11 -61q0 -54 28.5 -89t77.5 -35q30 0 56.5 14t46 37t30.5 52.5t11 60.5q0 51 -28.5 84.5t-79.5 33.5zM738 -8q-61 -41 -129 -63t-146 -22q-91 0 -168 31t-132.5 85t-86.5 127.5t-31 158.5q0 86 31.5 160.5t87 130
t130.5 87.5t162 32q81 0 152.5 -28t125 -77t84 -115t30.5 -142q0 -59 -14 -105t-39 -78t-58 -48.5t-72 -16.5q-45 0 -71 21.5t-40 63.5q-25 -35 -62 -59t-88 -24q-37 0 -69.5 13.5t-55.5 38t-36.5 58.5t-13.5 75q0 47 17 88t46.5 72.5t69 49.5t83.5 18q51 0 82 -22.5
t50 -55.5l10 65l70 -6l-37 -266q0 -37 15 -59t46 -22q24 0 45 13.5t37.5 38.5t26 59.5t9.5 76.5q0 69 -26 129t-72.5 104.5t-109 69.5t-136.5 25q-77 0 -142.5 -28t-113.5 -76.5t-75 -115t-27 -143.5q0 -76 26.5 -142t75.5 -114.5t118.5 -76t154.5 -27.5q69 0 126.5 19
t115.5 56z" />
    <glyph glyph-name="A" unicode="A" horiz-adv-x="737" 
d="M202 197l-85 -197h-91l308 705h70l309 -705h-93l-84 197h-334zM234 272h270l-135 334z" />
    <glyph glyph-name="B" unicode="B" horiz-adv-x="634" 
d="M80 705h201q46 0 90.5 -9t79 -30t55.5 -55t21 -84q0 -56 -25.5 -99t-76.5 -62q44 -6 75.5 -21.5t51.5 -38.5t29.5 -51.5t9.5 -60.5q0 -39 -15.5 -74.5t-49.5 -62t-87.5 -42t-129.5 -15.5h-229v705zM164 396h127q79 0 115.5 34.5t36.5 84.5q0 60 -41.5 88t-110.5 28h-127
v-235zM164 74h159q96 0 140 32t44 92q0 30 -11.5 53t-37 39t-67 24t-101.5 8h-126v-248z" />
    <glyph glyph-name="C" unicode="C" horiz-adv-x="668" 
d="M634 78q-48 -41 -104 -66.5t-131 -25.5q-77 0 -143 28t-114.5 77t-76 115.5t-27.5 144.5t27.5 145t76 116.5t115 78t145.5 28.5q71 0 123 -21.5t95 -54.5v-96q-19 21 -41 39t-49 30.5t-59.5 19.5t-73.5 7q-60 0 -110 -23t-86 -62.5t-56 -92.5t-20 -113t20 -112.5t56 -92
t86 -62t110 -22.5q38 0 70.5 9t61.5 24.5t54.5 36t50.5 42.5v-97z" />
    <glyph glyph-name="D" unicode="D" horiz-adv-x="716" 
d="M80 705h221q80 0 149 -25t119.5 -71t79 -111t28.5 -145q0 -78 -27 -142.5t-76.5 -111.5t-119 -73t-154.5 -26h-220v705zM165 76h131q71 0 125 20.5t91 57t56 87t19 110.5q0 49 -15.5 98.5t-46.5 89t-76.5 64.5t-104.5 25h-179v-552z" />
    <glyph glyph-name="E" unicode="E" horiz-adv-x="589" 
d="M166 76h385v-76h-471v705h460v-76h-374v-232h345v-76h-345v-245z" />
    <glyph glyph-name="F" unicode="F" horiz-adv-x="587" 
d="M165 -2h-85v707h457v-76h-372v-240h341v-76h-341v-315z" />
    <glyph glyph-name="G" unicode="G" horiz-adv-x="827" 
d="M476 321v78h291v-26q0 -79 -21.5 -149.5t-66 -123.5t-112.5 -84.5t-161 -31.5q-80 0 -147.5 29t-116.5 79t-76.5 117t-27.5 143q0 77 30 144t82 116.5t121.5 78t148.5 28.5q59 0 117.5 -16.5t112.5 -55.5v-94q-38 38 -94.5 64t-129.5 26q-61 0 -116 -23t-96.5 -63
t-66 -93t-24.5 -112q0 -62 22 -115t60.5 -92t91.5 -61t115 -22q59 0 109 18.5t87 52.5t58 82t21 106h-211z" />
    <glyph glyph-name="H" unicode="H" horiz-adv-x="709" 
d="M80 706h84v-308h382v308h84v-706h-84v320h-382v-320h-84v706z" />
    <glyph glyph-name="I" unicode="I" horiz-adv-x="243" 
d="M164 0h-84v705h84v-705z" />
    <glyph glyph-name="J" unicode="J" horiz-adv-x="373" 
d="M4 25v4v9v23v24v17q25 -16 53 -27q14 -5 29 -7.5t30 -2.5q48 0 73 31.5t25 110.5v498h14h29h43v-222v-225v-49q0 -109 -49 -164.5t-137 -55.5v0v0v0v0v0h-9t-8 1q-9 1 -16.5 2t-15.5 3q-18 5 -33 12t-28 15v3z" />
    <glyph glyph-name="K" unicode="K" horiz-adv-x="557" 
d="M164 409l267 296h108l-303 -330l331 -375h-108l-295 330v-330h-84v705h84v-296z" />
    <glyph glyph-name="L" unicode="L" horiz-adv-x="532" 
d="M165 76h345v-76h-430v705h85v-629z" />
    <glyph glyph-name="M" unicode="M" horiz-adv-x="836" 
d="M145 565v-565h-84v700h82l275 -421l275 421h82v-700h-84v565l-273 -412z" />
    <glyph glyph-name="N" unicode="N" horiz-adv-x="745" 
d="M584 126v579h82v-705h-84l-420 577v-577h-82v700h85z" />
    <glyph glyph-name="O" unicode="O" horiz-adv-x="808" 
d="M769 354q0 -76 -27.5 -143t-76 -117t-115.5 -79t-146 -29q-80 0 -147 28.5t-116 78t-76 116t-27 142.5q0 77 27.5 144t76.5 116.5t116.5 78.5t147.5 29q79 0 145.5 -29t115 -79t75.5 -116t27 -141zM682 350q0 61 -20.5 114t-57.5 92.5t-88 62.5t-111 23
q-62 0 -113.5 -22.5t-88.5 -61.5t-57.5 -91.5t-20.5 -112.5q0 -61 20.5 -114.5t57.5 -92.5t88.5 -61.5t113.5 -22.5q60 0 111 22.5t88 61.5t57.5 91t20.5 112z" />
    <glyph glyph-name="P" unicode="P" horiz-adv-x="601" 
d="M80 705h227q56 0 102.5 -14t79.5 -41t51 -65.5t18 -87.5q0 -52 -20 -92.5t-55 -68.5t-82 -42.5t-101 -14.5h-134v-281h-86v707zM166 355h132q82 0 128 36.5t46 101.5q0 68 -45 102t-127 34h-134v-274z" />
    <glyph glyph-name="Q" unicode="Q" horiz-adv-x="803" 
d="M605 44q-47 -27 -94 -42.5t-107 -15.5q-80 0 -147 28.5t-116 78t-76 116t-27 141.5q0 77 27.5 144t76.5 117t116.5 79t147.5 29q79 0 145.5 -29t115 -79t75.5 -116t27 -141t-25.5 -138t-70.5 -112l94 -74v-109zM682 350q0 61 -20.5 114t-57.5 92.5t-88 62.5t-111 23
q-62 0 -113.5 -22.5t-88.5 -61.5t-57.5 -91.5t-20.5 -112.5q0 -61 20.5 -114.5t57.5 -92.5t88.5 -61.5t113.5 -22.5q60 0 111 22.5t88 61.5t57.5 91t20.5 112z" />
    <glyph glyph-name="R" unicode="R" horiz-adv-x="603" 
d="M80 0v705h219q54 0 99 -14.5t77 -41.5t50 -64t18 -82q0 -81 -53 -132.5t-141 -66.5l229 -304h-103l-219 299h-90v-299h-86zM272 368q39 0 73 7t59 23t39 41t14 61q0 67 -44 98t-124 31h-123v-261h106z" />
    <glyph glyph-name="S" unicode="S" horiz-adv-x="550" 
d="M269 63q26 0 52.5 5.5t48 18t35.5 33t14 50.5q0 41 -26.5 70.5t-66.5 54t-87 48t-87 52.5t-66.5 67t-26.5 92q0 39 18 69.5t48 51.5t69.5 32t81.5 11q49 0 92.5 -13.5t78.5 -43.5v-103q-20 26 -41.5 42.5t-43.5 26t-43.5 13t-41.5 3.5q-57 0 -94.5 -23.5t-37.5 -67.5
q0 -37 26.5 -63.5t66.5 -49.5t87 -45.5t87 -52t66.5 -68.5t26.5 -95q0 -52 -21 -88.5t-55.5 -59t-77.5 -32.5t-88 -10q-62 0 -116.5 18.5t-102.5 64.5v93q58 -58 115 -79.5t110 -21.5z" />
    <glyph glyph-name="T" unicode="T" horiz-adv-x="502" 
d="M293 0h-84v629h-210v76h504v-76h-210v-629z" />
    <glyph glyph-name="U" unicode="U" horiz-adv-x="717" 
d="M360 -15q-69 0 -121.5 21.5t-88 61t-53.5 94.5t-18 122v422h84v-418q0 -104 48.5 -164.5t147.5 -60.5q94 0 144.5 55t50.5 167v421h84v-419q0 -70 -17.5 -126t-52.5 -95t-87 -60t-121 -21z" />
    <glyph glyph-name="V" unicode="V" horiz-adv-x="653" 
d="M98 705l235 -617l232 617h92l-275 -705h-101l-277 705h94z" />
    <glyph glyph-name="W" unicode="W" horiz-adv-x="1009" 
d="M297 126l173 580h81l178 -580l184 579h88l-234 -705h-80l-179 582l-173 -582h-82l-237 705h91z" />
    <glyph glyph-name="X" unicode="X" horiz-adv-x="658" 
d="M137 705l195 -279l191 279h96l-240 -342l253 -363h-97l-206 296l-204 -296h-99l255 361l-243 344h99z" />
    <glyph glyph-name="Y" unicode="Y" horiz-adv-x="640" 
d="M369 0h-84v280l-271 425h100l216 -347l214 347h95l-270 -424v-281z" />
    <glyph glyph-name="Z" unicode="Z" horiz-adv-x="666" 
d="M141 75h472v-75h-582v72l500 558h-472v75h575v-73z" />
    <glyph glyph-name="bracketleft" unicode="[" horiz-adv-x="345" 
d="M326 660h-163v-752h163v-66h-240v884h240v-66z" />
    <glyph glyph-name="backslash" unicode="\" horiz-adv-x="485" 
d="M2 773l72 8l412 -892l-73 -6z" />
    <glyph glyph-name="bracketright" unicode="]" horiz-adv-x="347" 
d="M20 -92h163v751h-163v67h242v-885h-242v67z" />
    <glyph glyph-name="asciicircum" unicode="^" horiz-adv-x="557" 
d="M241 706h72l181 -288h-76l-141 224l-141 -224h-73z" />
    <glyph glyph-name="underscore" unicode="_" horiz-adv-x="561" 
d="M0 -82h561v-65h-561v65z" />
    <glyph glyph-name="grave" unicode="`" horiz-adv-x="310" 
d="M23 692l94 20l95 -149h-63z" />
    <glyph glyph-name="a" unicode="a" horiz-adv-x="546" 
d="M400 228q-25 14 -58.5 26t-81.5 12q-24 0 -49.5 -5.5t-45.5 -18t-33 -32.5t-13 -49q0 -27 11 -46.5t30 -32t43.5 -19t51.5 -6.5q49 0 84.5 17.5t60.5 47.5v106zM398 49q-34 -30 -72.5 -45t-88.5 -15q-36 0 -71.5 12t-64 35t-46.5 57t-18 78q0 47 19 78t49 50t68 26.5
t75 7.5q43 0 81.5 -7.5t70.5 -26.5v19q0 57 -40.5 80.5t-103.5 23.5q-48 0 -95.5 -11.5t-91.5 -38.5v78q34 15 84 28.5t106 13.5q44 0 84 -11.5t71 -34.5t49.5 -57.5t18.5 -80.5v-308z" />
    <glyph glyph-name="b" unicode="b" horiz-adv-x="616" 
d="M338 -10q-59 0 -103 23t-72 58l-91 -70v731h82v-338q32 45 79 72.5t107 27.5q49 0 92 -18t75.5 -51.5t51 -80t18.5 -103.5q0 -56 -19 -102.5t-51 -79.5t-75.5 -51t-93.5 -18zM495 240q0 38 -12.5 71.5t-35 58t-54 38.5t-70.5 14q-35 0 -66.5 -13.5t-55 -37.5t-37 -57.5
t-13.5 -72.5t13.5 -72t37 -57.5t55 -38.5t66.5 -14q37 0 68.5 13.5t54.5 37.5t36 57t13 73z" />
    <glyph glyph-name="c" unicode="c" horiz-adv-x="459" 
d="M425 359q-28 30 -62.5 47t-74.5 17q-36 0 -66.5 -13.5t-52 -37t-34 -56t-12.5 -70.5q0 -37 13 -71t35.5 -59.5t53 -40.5t66.5 -15q42 0 77 18t62 47v-90q-29 -18 -66 -31t-82 -13q-52 0 -96 19t-76.5 52.5t-51 79t-18.5 98.5q0 52 18 98t50.5 80t78.5 54t102 20
q36 0 72.5 -10t63.5 -30v-93z" />
    <glyph glyph-name="d" unicode="d" horiz-adv-x="615" 
d="M450 77q-33 -40 -73 -63.5t-99 -23.5q-49 0 -92.5 17.5t-76 50.5t-51.5 79.5t-19 103.5t19 104t51 80t75 51t91 18q61 0 107.5 -26t77.5 -70v334h82v-731zM122 242q0 -40 12.5 -73.5t35 -57.5t52.5 -37.5t66 -13.5t67.5 13.5t55.5 38t38 58t14 72.5t-14.5 72.5t-38.5 58
t-55.5 38t-66.5 13.5q-34 0 -64.5 -13t-53 -37t-35.5 -57.5t-13 -74.5z" />
    <glyph glyph-name="e" unicode="e" horiz-adv-x="542" 
d="M295 59q57 0 96.5 22.5t68.5 50.5v-88q-30 -24 -73 -39.5t-97 -15.5t-99.5 18.5t-79 51.5t-52.5 79t-19 101q0 54 16.5 100.5t46.5 81t72.5 54.5t95.5 20q52 0 92.5 -18.5t70 -49.5t47 -72.5t23.5 -88.5l-375 -91q17 -51 58.5 -83.5t107.5 -32.5zM124 240l297 76
q-13 46 -51.5 77.5t-95.5 31.5q-37 0 -66 -15t-48.5 -40t-29.5 -57t-10 -66z" />
    <glyph glyph-name="f" unicode="f" horiz-adv-x="288" 
d="M329 658q-28 10 -51 10q-48 0 -67 -29.5t-19 -85.5v-71h121v-69h-121v-413h-79v413h-98l98 71v73q0 96 42 137.5t113 41.5q18 0 33.5 -3t27.5 -7v-68z" />
    <glyph glyph-name="g" unicode="g" horiz-adv-x="616" 
d="M124 258q0 -37 12.5 -68t35 -53.5t53 -35t66.5 -12.5q35 0 66.5 12.5t54.5 34.5t36.5 52.5t13.5 66.5q0 37 -13.5 68t-36.5 53.5t-54.5 35t-67.5 12.5t-66.5 -12t-52.5 -34t-34.5 -52.5t-12.5 -67.5zM275 -124q91 0 139 41.5t48 137.5v60q-35 -44 -80.5 -70t-106.5 -26
q-50 0 -93 17.5t-74.5 48.5t-49.5 74t-18 94q0 54 18.5 98.5t51 76t75 49t90.5 17.5q60 0 102.5 -22.5t73.5 -59.5l92 70v-426q0 -62 -19.5 -108.5t-55 -78t-85 -47.5t-108.5 -16t-108.5 13.5t-85.5 33.5v90q43 -34 90 -50.5t104 -16.5z" />
    <glyph glyph-name="h" unicode="h" horiz-adv-x="563" 
d="M318 493q40 0 71.5 -11t54 -34t34.5 -59t12 -86v-303h-82v280q0 132 -111 132q-27 0 -52 -8t-44.5 -24.5t-31 -41.5t-11.5 -58v-280h-82v732h74v-316q26 32 69.5 54.5t98.5 22.5z" />
    <glyph glyph-name="i" unicode="i" horiz-adv-x="251" 
d="M167 0h-81v482h81v-482zM65 637q0 27 18 44t42 17q26 0 43.5 -17t17.5 -44q0 -23 -17.5 -41t-43.5 -18q-24 0 -42 18t-18 41z" />
    <glyph glyph-name="j" unicode="j" horiz-adv-x="195" 
d="M-47 -119q16 -6 33 -6q16 0 25.5 5.5t15 14t7.5 20t2 23.5v544h81v-519q0 -32 -3.5 -60.5t-15.5 -50t-34.5 -34t-60.5 -12.5q-15 0 -27 2t-23 5v68zM12 637q0 27 17.5 44t42.5 17q23 0 41.5 -17t18.5 -44q0 -23 -18.5 -41t-41.5 -18q-25 0 -42.5 18t-17.5 41z" />
    <glyph glyph-name="k" unicode="k" horiz-adv-x="445" 
d="M158 281l184 201h105l-219 -228l228 -254h-101l-197 216v-216h-82v732h82v-451z" />
    <glyph glyph-name="l" unicode="l" horiz-adv-x="235" 
d="M157 0h-81v732h81v-732z" />
    <glyph glyph-name="m" unicode="m" horiz-adv-x="855" 
d="M699 0v279q0 75 -28.5 108.5t-79.5 33.5q-30 0 -53.5 -11.5t-39 -31t-23.5 -45t-8 -54.5v-279h-82v279q0 30 -5.5 56t-18 45t-33.5 30t-51 11t-53 -11.5t-38.5 -31t-23.5 -45t-8 -54.5v-279h-82v481l79 -57q26 36 67 52.5t84 16.5q49 0 88 -21t59 -68q23 43 67.5 66
t97.5 23q43 0 74.5 -14.5t52 -40t30.5 -60t10 -74.5v-304h-82z" />
    <glyph glyph-name="n" unicode="n" horiz-adv-x="559" 
d="M312 493q80 0 127 -47.5t47 -142.5v-303h-82v280q0 41 -10.5 68t-27 43t-38 23t-42.5 7t-44 -6.5t-42.5 -22.5t-32.5 -43.5t-13 -68.5v-280h-82v482l84 -61q27 32 65 52t91 20z" />
    <glyph glyph-name="o" unicode="o" 
d="M556 242q0 -52 -19.5 -98t-54 -80.5t-82.5 -54t-104 -19.5q-55 0 -102 19t-81.5 53t-53.5 79.5t-19 98.5t19 99.5t53.5 81t81.5 54t103 19.5t103.5 -19.5t82 -53.5t54 -80t19.5 -99zM473 241q0 38 -13 71.5t-36.5 58.5t-56 39.5t-71.5 14.5t-71 -14.5t-54.5 -39t-35 -58
t-12.5 -71.5q0 -39 13.5 -72.5t36.5 -58t55 -38.5t69 -14q38 0 70.5 14.5t56 39.5t36.5 58t13 70z" />
    <glyph glyph-name="p" unicode="p" horiz-adv-x="617" 
d="M154 -188h-82v670l92 -76q34 39 74.5 63.5t100.5 24.5q48 0 91.5 -18t76 -51t51.5 -79.5t19 -103.5t-19.5 -103.5t-52.5 -79.5t-76 -51t-90 -18q-60 0 -106 24.5t-79 69.5v-272zM495 242q0 40 -13 73t-36 57t-54.5 37t-68.5 13q-35 0 -66.5 -13.5t-55 -37.5t-37.5 -57.5
t-14 -72.5t14.5 -72t38.5 -57.5t56 -38.5t67 -14t66 13t54 37t36 57.5t13 75.5z" />
    <glyph glyph-name="q" unicode="q" horiz-adv-x="616" 
d="M461 -188v275q-34 -45 -78 -71.5t-104 -26.5q-50 0 -93.5 18.5t-76 52t-51 80t-18.5 101.5q0 57 19 104t51 80t76 51t93 18q59 0 99 -23.5t73 -60.5l92 72v-670h-82zM123 243q0 -39 13 -73t35.5 -58.5t53.5 -38.5t67 -14q35 0 66.5 14t55.5 38.5t38 58t14 72.5t-14 72.5
t-37.5 58t-55 38t-66.5 13.5q-37 0 -68 -13t-53.5 -37t-35.5 -57t-13 -74z" />
    <glyph glyph-name="r" unicode="r" horiz-adv-x="362" 
d="M346 410q-19 9 -44 9q-24 0 -50 -8t-48 -26t-36 -46t-14 -68v-271h-82v482l84 -54q28 31 68.5 47t79.5 16q12 0 22 -1.5t20 -3.5v-76z" />
    <glyph glyph-name="s" unicode="s" horiz-adv-x="413" 
d="M203 58q36 0 62.5 17.5t26.5 55.5q0 29 -17.5 48.5t-44 34t-57.5 28t-57.5 31t-44 42t-17.5 61.5q0 54 39.5 85.5t110.5 31.5q35 0 69.5 -9.5t62.5 -30.5v-90q-29 26 -61 44t-69 18q-36 0 -54.5 -16t-18.5 -36q0 -21 17.5 -37t44 -29.5t57.5 -28t57.5 -34t44 -46.5
t17.5 -65q0 -29 -11.5 -55t-33 -45.5t-52 -31t-69.5 -11.5q-57 0 -96 18t-68 38v88q32 -29 73 -52.5t89 -23.5z" />
    <glyph glyph-name="t" unicode="t" horiz-adv-x="353" 
d="M117 412h-98l178 237v-167h128v-70h-128v-300q0 -20 10 -36.5t34 -16.5q17 0 39 9v-69q-11 -5 -23 -7.5t-26 -2.5q-53 0 -83.5 34.5t-30.5 96.5v292z" />
    <glyph glyph-name="u" unicode="u" horiz-adv-x="559" 
d="M247 -10q-80 0 -127 47.5t-47 142.5v303h82v-280q0 -40 10.5 -67.5t27 -43.5t38 -23t42.5 -7t44.5 6.5t43 22.5t32 43.5t12.5 68.5v280h82v-482l-84 61q-27 -32 -65 -52t-91 -20z" />
    <glyph glyph-name="v" unicode="v" horiz-adv-x="510" 
d="M297 0h-81l-202 481h90l154 -390l155 390h86z" />
    <glyph glyph-name="w" unicode="w" horiz-adv-x="767" 
d="M104 482l123 -383l118 384h83l117 -383l120 382h86l-164 -482h-81l-123 395l-121 -395h-78l-165 482h85z" />
    <glyph glyph-name="x" unicode="x" horiz-adv-x="499" 
d="M202 249l-181 232h94l133 -174l134 174h90l-178 -230l192 -251h-93l-147 192l-146 -192h-92z" />
    <glyph glyph-name="y" unicode="y" horiz-adv-x="505" 
d="M-4 481h89l165 -383l149 383h86l-268 -669h-78l75 188z" />
    <glyph glyph-name="z" unicode="z" horiz-adv-x="503" 
d="M117 70h363v-70h-461v69l369 345h-348v68h446v-68z" />
    <glyph glyph-name="braceleft" unicode="{" horiz-adv-x="376" 
d="M29 325q54 0 81.5 24.5t27.5 81.5q0 46 -1 85.5t1.5 72.5t12.5 58.5t32.5 43.5t59.5 28.5t95 13.5l12 -58q-29 -6 -53 -12.5t-41 -19.5t-26.5 -34t-9.5 -54q0 -43 2 -82t-4.5 -73t-26.5 -62t-65 -49q45 -21 65 -49t26.5 -62t4.5 -73t-2 -82q0 -33 9.5 -54t26.5 -34
t41 -19.5t53 -12.5l-12 -58q-60 3 -99 13t-62 33.5t-32 62t-9 97.5q0 35 2.5 71t-5 65t-30.5 47t-74 18v73z" />
    <glyph glyph-name="bar" unicode="|" horiz-adv-x="253" 
d="M163 767v-935h-73v935h73z" />
    <glyph glyph-name="braceright" unicode="}" horiz-adv-x="376" 
d="M347 252q-55 1 -82 -24t-27 -81q0 -72 1.5 -127t-14.5 -92.5t-58 -58t-129 -24.5l-12 58q29 6 53 12.5t41 19.5t26.5 34t9.5 54q0 43 -2 82t4.5 73t26.5 62t65 49q-45 21 -65 49t-26.5 62t-4.5 73t2 82q0 33 -9.5 54t-26.5 34t-41 19.5t-53 12.5l12 58q60 -3 99 -13
t62 -33.5t32 -62t9 -97.5q0 -34 -2 -70.5t5.5 -66t30.5 -48t73 -17.5v-73z" />
    <glyph glyph-name="asciitilde" unicode="~" horiz-adv-x="508" 
d="M463 347q-20 -51 -48 -81.5t-70 -30.5q-23 0 -45 8.5t-43.5 19t-42.5 19t-42 8.5q-26 0 -44 -16t-32 -45l-49 24q22 54 50.5 82.5t73.5 28.5q26 0 48 -8.5t41.5 -19t38 -19t37.5 -8.5q24 0 44 16t33 44z" />
    <glyph glyph-name="exclamdown" unicode="&#xa1;" horiz-adv-x="238" 
d="M70 -89l6 126l16 377h55l16 -377l5 -126h-98zM179 567q0 -25 -18.5 -42t-41.5 -17q-25 0 -42.5 17t-17.5 42q0 27 17.5 42.5t42.5 15.5q23 0 41.5 -15.5t18.5 -42.5z" />
    <glyph glyph-name="cent" unicode="&#xa2;" horiz-adv-x="553" 
d="M299 500q-69 -5 -108.5 -50t-39.5 -125q0 -65 29 -107t80 -67zM478 435q-17 20 -48.5 37.5t-69.5 21.5l-39 -352q44 0 84.5 22t71.5 54v-84q-30 -29 -69.5 -45.5t-91.5 -16.5l-11 -86h-65l12 95q-41 11 -74.5 34t-57.5 54.5t-37 70t-13 81.5q0 53 17 98.5t48 79t74.5 53
t96.5 22.5l9 81h63l-8 -86q27 -5 54.5 -18t53.5 -33v-83z" />
    <glyph glyph-name="sterling" unicode="&#xa3;" horiz-adv-x="593" 
d="M461 305h-250v-232h330v-73h-416v305h-66v68h66v103q0 52 15 96t43.5 76.5t70.5 50.5t96 18q66 0 115 -26.5t84 -70.5l-56 -54q-27 34 -59.5 54t-85.5 20q-37 0 -63 -13.5t-42.5 -36t-24 -52.5t-7.5 -63v-102h250v-68z" />
    <glyph glyph-name="currency" unicode="&#xa4;" horiz-adv-x="656" 
d="M629 574l-93 -91q24 -37 37 -73t13 -82t-13.5 -84.5t-38.5 -72.5l95 -94l-50 -50l-96 95q-70 -48 -153 -48t-153 49l-98 -96l-49 50l97 97q-26 32 -38.5 69t-12.5 85q0 47 11 81.5t37 71.5l-94 93l49 50l95 -94q34 26 74 39t82 13q88 0 154 -51l94 93zM330 507
q-39 0 -71 -14t-55 -38.5t-35.5 -57t-12.5 -69.5t12.5 -69.5t35.5 -57t55 -38.5t71 -14t70.5 14t54.5 38t35.5 56.5t12.5 69.5q0 39 -12.5 72t-35.5 57t-54.5 37.5t-70.5 13.5z" />
    <glyph glyph-name="yen" unicode="&#xa5;" horiz-adv-x="622" 
d="M272 213l-10 90h-176v67h145l-214 335h98l199 -333l197 333h95l-214 -335h144v-67h-176l-6 -90h182v-67h-184v-146h-81v146h-185v67h186z" />
    <glyph glyph-name="brokenbar" unicode="&#xa6;" horiz-adv-x="256" 
d="M166 681v-353h-76v353h76zM166 173v-347h-76v347h76z" />
    <glyph glyph-name="section" unicode="&#xa7;" horiz-adv-x="594" 
d="M457 588q-38 32 -73.5 49t-81.5 17q-47 0 -77 -17.5t-30 -53.5q0 -13 7 -26.5t24.5 -28t46.5 -29t73 -29.5q59 -20 95.5 -39t57 -38t27.5 -39.5t7 -44.5q0 -53 -31.5 -84t-89.5 -46q71 -51 71 -117q0 -33 -14 -60.5t-38.5 -47t-58.5 -30t-74 -10.5q-53 0 -95 16.5
t-74 44.5v80q34 -38 77.5 -55.5t92.5 -17.5q47 0 74.5 19.5t27.5 57.5q0 35 -41 63t-116 51q-52 16 -87 34t-56 38t-30 42t-9 47q0 101 124 130q-29 20 -51 50t-22 70q0 31 14 56.5t39 43.5t58 28t72 10q49 0 90 -14.5t71 -39.5v-80zM456 287q0 30 -25 53.5t-60 41t-71.5 28
t-59.5 14.5q-45 -5 -73 -24.5t-28 -54.5q0 -23 16 -43t44.5 -36.5t69 -28.5t89.5 -19q45 0 71.5 19.5t26.5 49.5z" />
    <glyph glyph-name="dieresis" unicode="&#xa8;" horiz-adv-x="323" 
d="M7 563q0 24 16.5 41.5t42.5 17.5q24 0 42 -17.5t18 -41.5q0 -25 -18 -42t-42 -17q-26 0 -42.5 17t-16.5 42zM199 563q0 24 16.5 41.5t40.5 17.5q26 0 42.5 -17.5t16.5 -41.5q0 -25 -16.5 -42t-42.5 -17q-24 0 -40.5 17t-16.5 42z" />
    <glyph glyph-name="copyright" unicode="&#xa9;" horiz-adv-x="865" 
d="M435 -63q-82 0 -153.5 31t-124.5 85t-83 126.5t-30 155.5q0 80 31 151t84 124.5t124 84.5t151 31t151.5 -31t124.5 -84.5t84 -125.5t31 -154t-30.5 -154t-83.5 -125.5t-124 -84t-152 -30.5zM435 6q67 0 126 25.5t103.5 69.5t70 103.5t25.5 126.5q0 68 -25.5 127
t-70 103.5t-103.5 70t-126 25.5t-126.5 -25.5t-104 -69.5t-70 -103t-25.5 -126t25.5 -127t69.5 -104t103.5 -70t127.5 -26zM566 157q-27 -24 -59.5 -37.5t-74.5 -13.5q-48 0 -87 18t-67.5 49t-44 74t-15.5 92t15.5 90.5t43.5 72t68 48t89 17.5q45 0 79.5 -14.5t54.5 -30.5
v-81q-25 25 -59 39.5t-69 14.5q-30 0 -55.5 -12t-44.5 -33t-29.5 -49.5t-10.5 -61.5q0 -34 10 -63t28.5 -51t45 -34.5t59.5 -12.5q25 0 56.5 10.5t66.5 42.5v-74z" />
    <glyph glyph-name="ordfeminine" unicode="&#xaa;" horiz-adv-x="340" 
d="M144 412q-19 0 -37.5 6t-33.5 17t-24.5 28t-9.5 39q0 49 34 72.5t88 23.5q25 0 42.5 -4t37.5 -10v8q0 36 -21 53t-57 17q-23 0 -44 -6t-40 -17l-16 44q22 11 49 18.5t56 7.5q54 0 89 -28.5t35 -88.5v-174h-51v42q-17 -22 -42 -35t-55 -13zM35 338h262v-47h-262v47z
M155 454q35 0 60.5 19t25.5 51v21q-15 7 -33.5 11t-41.5 4q-36 0 -56 -14.5t-20 -40.5t19 -38.5t46 -12.5z" />
    <glyph glyph-name="guillemotleft" unicode="&#xab;" horiz-adv-x="484" 
d="M249 68l-67 -29l-152 207l152 211l69 -24l-130 -184zM458 68l-67 -29l-152 207l152 211l69 -24l-130 -184z" />
    <glyph glyph-name="logicalnot" unicode="&#xac;" 
d="M554 129h-69v211h-443v71h512v-282z" />
    <glyph glyph-name="uni00AD" unicode="&#xad;" horiz-adv-x="300" 
d="M31 307h254v-69h-254v69z" />
    <glyph glyph-name="registered" unicode="&#xae;" horiz-adv-x="807" 
d="M43 371q0 74 28.5 139t78 113t116 75.5t142.5 27.5q73 0 137.5 -28t113 -76.5t77 -113t28.5 -137.5t-29 -138t-78 -114t-114.5 -77.5t-137.5 -28.5q-75 0 -141 28.5t-115 77t-77.5 114t-28.5 138.5zM107 371q0 -61 23 -115t63 -94.5t94.5 -64t117.5 -23.5q61 0 115 24
t94 64.5t63 95t23 114.5t-23.5 113.5t-63.5 93.5t-93 63t-113 23q-63 0 -117.5 -23t-95 -62.5t-64 -93t-23.5 -115.5zM275 584h141q26 0 48.5 -8t39.5 -23t27 -36.5t10 -48.5q0 -24 -8.5 -45t-23.5 -36.5t-34.5 -26t-40.5 -14.5l151 -189h-84l-142 181h-13v-181h-71v427z
M400 403q32 0 54.5 15.5t22.5 43.5q0 23 -18.5 42t-56.5 19h-56v-120h54z" />
    <glyph glyph-name="degree" unicode="&#xb0;" horiz-adv-x="350" 
d="M325 567q0 -30 -11.5 -57t-32 -46.5t-47.5 -31t-57 -11.5t-57 11.5t-47 31t-32 46t-12 56.5t12 56.5t32.5 47t47 32t56.5 11.5q31 0 58 -11.5t47 -31t31.5 -46t11.5 -57.5zM268 567q0 19 -7 35.5t-19.5 29t-29 20t-35.5 7.5t-35.5 -7.5t-29 -20.5t-19.5 -29.5t-7 -34.5
q0 -19 7 -35.5t19 -29t29 -20t36 -7.5q38 0 64.5 25.5t26.5 66.5z" />
    <glyph glyph-name="plusminus" unicode="&#xb1;" horiz-adv-x="581" 
d="M42 409h214v164h69v-164h214v-70h-214v-158h-69v158h-214v70zM42 104h497v-70h-497v70z" />
    <glyph glyph-name="twosuperior" unicode="&#xb2;" horiz-adv-x="333" 
d="M130 429q30 37 49.5 63t31.5 45t16.5 33.5t4.5 27.5q0 28 -18.5 46.5t-46.5 18.5q-16 0 -34.5 -9t-37.5 -33l-40 48q34 29 59 40t56 11q61 0 95.5 -34t34.5 -88q0 -21 -5.5 -39t-18 -39t-33 -47t-50.5 -62l-56 -69h165l-31 -57h-258z" />
    <glyph glyph-name="threesuperior" unicode="&#xb3;" horiz-adv-x="294" 
d="M9 359q29 -11 54 -18t48 -7q42 0 68 24t26 59q0 14 -5 28.5t-17 25.5t-32 18t-51 7h-24v56h19q38 0 62.5 18.5t24.5 44.5q0 21 -17 36.5t-46 15.5q-18 0 -39.5 -5t-46.5 -17l3 61q18 8 39 12.5t45 4.5q57 0 91.5 -27.5t34.5 -75.5q0 -32 -16.5 -53t-42.5 -39
q41 -17 61.5 -43.5t20.5 -66.5q0 -31 -11.5 -57t-32.5 -44.5t-49.5 -28.5t-62.5 -10q-21 0 -46.5 3.5t-57.5 13.5v64z" />
    <glyph glyph-name="acute" unicode="&#xb4;" horiz-adv-x="307" 
d="M165 563h-59l91 149l96 -20z" />
    <glyph glyph-name="uni00B5" unicode="&#xb5;" horiz-adv-x="564" 
d="M155 64v-252h-82v671h82v-279q0 -39 10.5 -66t27 -44t37 -25t41.5 -8q27 0 51.5 8.5t43 26.5t29 45t10.5 63v279h82v-483l-83 62q-21 -30 -56 -51t-77 -21q-35 0 -66 18t-50 56z" />
    <glyph glyph-name="paragraph" unicode="&#xb6;" horiz-adv-x="629" 
d="M209 -104v465q-33 7 -64 17.5t-55 29t-39 48.5t-15 76q0 85 53 129.5t144 44.5h306l-44 -81h-33v-729h-79v729h-95v-729h-79z" />
    <glyph glyph-name="periodcentered" unicode="&#xb7;" horiz-adv-x="210" 
d="M45 304q0 25 17.5 42.5t42.5 17.5q24 0 41.5 -17.5t17.5 -42.5q0 -24 -17.5 -42t-41.5 -18q-25 0 -42.5 18t-17.5 42z" />
    <glyph glyph-name="cedilla" unicode="&#xb8;" horiz-adv-x="337" 
d="M178 -66h3q12 0 26 -3t26 -10t20 -20t8 -32q0 -24 -11.5 -40t-29.5 -26.5t-39 -15t-40 -4.5q-24 0 -44 5.5t-39 14.5l11 41q27 -10 49 -10q9 0 20 2t21 7.5t17 14t7 21.5q0 16 -11.5 23.5t-29.5 7.5q-14 0 -31 -7l-17 13l60 88h65z" />
    <glyph glyph-name="onesuperior" unicode="&#xb9;" horiz-adv-x="219" 
d="M80 618q-12 -17 -28 -32.5t-29 -24.5v69q51 42 71 83h54v-428h-68v333z" />
    <glyph glyph-name="ordmasculine" unicode="&#xba;" horiz-adv-x="334" 
d="M166 410q-32 0 -59 12t-46.5 32t-30.5 47.5t-11 57.5q0 31 11 58.5t31 48t47.5 32.5t59.5 12t59 -12t46.5 -32.5t30.5 -47t11 -55.5q0 -31 -11.5 -59t-31.5 -49t-47 -33t-59 -12zM23 338h288v-47h-288v47zM168 460q42 0 67.5 28.5t25.5 70.5q0 44 -27 72.5t-68 28.5
q-21 0 -38.5 -8t-29.5 -21.5t-18.5 -31t-6.5 -36.5q0 -45 27 -74t68 -29z" />
    <glyph glyph-name="guillemotright" unicode="&#xbb;" horiz-adv-x="483" 
d="M154 249l-130 184l69 24l152 -211l-152 -207l-67 29zM362 249l-130 184l69 24l152 -211l-152 -207l-67 29z" />
    <glyph glyph-name="onequarter" unicode="&#xbc;" horiz-adv-x="725" 
d="M473 125h49h56v159v6q-1 -1 -1 -2q-4 -6 -15.5 -23.5t-26.5 -41t-32 -49.5t-32 -49h2zM390 105l211 323h45v-303h42l-18 -55h-24v-70h-68v70h-188v35zM517 750l52 -31l-434 -768l-47 30zM102 610q-12 -17 -28 -32.5t-29 -24.5v69q51 42 71 83h54v-428h-68v333z" />
    <glyph glyph-name="onehalf" unicode="&#xbd;" horiz-adv-x="733" 
d="M87 610q-12 -17 -26 -30t-31 -27v69q51 42 71 83h54v-428h-68v333zM494 750l52 -31l-436 -768l-47 30zM538 181q22 27 36 47t22.5 35.5t12 27.5t3.5 23q0 28 -18.5 46.5t-46.5 18.5q-16 0 -34.5 -9t-37.5 -33l-40 48q54 51 115 51q57 0 93.5 -34t36.5 -88q0 -21 -5.5 -39
t-18 -39t-33 -47t-50.5 -62l-56 -69h165l-31 -57h-258z" />
    <glyph glyph-name="threequarters" unicode="&#xbe;" horiz-adv-x="721" 
d="M492 126h97v142v23q-27 -42 -53.5 -82.5t-53.5 -82.5h10zM402 108l210 322h41v-304h43l-18 -56h-25v-70h-64v70h-187v38zM569 750l52 -30l-435 -768l-50 29zM31 351q25 -9 50.5 -17t51.5 -8q36 0 65 22t29 61q0 28 -12.5 43.5t-31 23.5t-41.5 10t-44 2v56q15 0 33.5 2.5
t34.5 9t27 19t11 32.5q0 26 -19.5 39t-43.5 13q-23 0 -44.5 -6t-41.5 -16l3 61q40 17 80 17q24 0 47.5 -5.5t42 -18t29.5 -32t11 -47.5q0 -32 -17 -53.5t-42 -38.5q38 -16 60 -42t22 -68q0 -33 -12.5 -59t-34 -44t-49.5 -27.5t-60 -9.5q-26 0 -52 4.5t-52 12.5v64z" />
    <glyph glyph-name="questiondown" unicode="&#xbf;" horiz-adv-x="434" 
d="M245 -151q35 0 73 18.5t74 70.5v-97q-23 -30 -64.5 -49t-92.5 -19q-40 0 -73 12t-56 34t-35.5 52.5t-12.5 67.5q0 58 26 100t64 77q20 17 34 33t23 33.5t13 38t4 47.5v32h82v-62q0 -32 -8.5 -58t-22 -47t-30 -38.5t-33.5 -33.5q-28 -26 -49 -52.5t-21 -62.5
q0 -18 6.5 -35.5t19.5 -31t33 -22t46 -8.5zM318 440q0 -23 -18 -41t-42 -18q-25 0 -43 18t-18 41q0 27 18 43t43 16q24 0 42 -16t18 -43z" />
    <glyph glyph-name="Agrave" unicode="&#xc0;" horiz-adv-x="737" 
d="M202 197l-85 -197h-91l308 705h70l309 -705h-93l-84 197h-334zM234 272h270l-135 334zM236 892l94 20l95 -149h-63z" />
    <glyph glyph-name="Aacute" unicode="&#xc1;" horiz-adv-x="737" 
d="M202 197l-85 -197h-91l308 705h70l309 -705h-93l-84 197h-334zM234 272h270l-135 334zM366 763h-59l91 149l96 -20z" />
    <glyph glyph-name="Acircumflex" unicode="&#xc2;" horiz-adv-x="737" 
d="M202 197l-85 -197h-91l308 705h70l309 -705h-93l-84 197h-334zM234 272h270l-135 334zM514 758h-66l-78 82l-76 -82h-66l107 141h73z" />
    <glyph glyph-name="Atilde" unicode="&#xc3;" horiz-adv-x="737" 
d="M202 197l-85 -197h-91l308 705h70l309 -705h-93l-84 197h-334zM234 272h270l-135 334zM206 768q14 47 41 75.5t66 28.5q18 0 34.5 -6t31.5 -12.5t29.5 -12.5t27.5 -6q17 0 28 11.5t19 33.5l53 -10q-14 -48 -36.5 -75.5t-57.5 -27.5q-16 0 -31.5 6t-30.5 12.5t-30 12.5
t-31 6q-18 0 -34.5 -10.5t-24.5 -35.5z" />
    <glyph glyph-name="Adieresis" unicode="&#xc4;" horiz-adv-x="737" 
d="M202 197l-85 -197h-91l308 705h70l309 -705h-93l-84 197h-334zM234 272h270l-135 334zM217 824q0 24 16.5 41.5t42.5 17.5q24 0 42 -17.5t18 -41.5q0 -25 -18 -42t-42 -17q-26 0 -42.5 17t-16.5 42zM409 824q0 24 16.5 41.5t40.5 17.5q26 0 42.5 -17.5t16.5 -41.5
q0 -25 -16.5 -42t-42.5 -17q-24 0 -40.5 17t-16.5 42z" />
    <glyph glyph-name="Aring" unicode="&#xc5;" horiz-adv-x="737" 
d="M202 197l-85 -197h-91l308 705h70l309 -705h-93l-84 197h-334zM234 272h270l-135 334zM472 868q0 -42 -29.5 -69.5t-73.5 -27.5q-20 0 -38 7.5t-32 21t-22 31.5t-8 39t8 39.5t22 32t32 21.5t38 8q21 0 40 -8t33 -22t22 -33t8 -40zM428 870q0 23 -16 40t-41 17
t-41.5 -16.5t-16.5 -39.5q0 -26 17 -41t41 -15q26 0 41.5 16t15.5 39z" />
    <glyph glyph-name="AE" unicode="&#xc6;" horiz-adv-x="963" 
d="M434 705h485v-76h-374v-232h345v-76h-345v-245h385v-76h-471v197h-249l-120 -197h-91zM459 272v330l-203 -330h203z" />
    <glyph glyph-name="Ccedilla" unicode="&#xc7;" horiz-adv-x="673" 
d="M634 78q-48 -41 -104 -66.5t-131 -25.5q-77 0 -143 28t-114.5 77t-76 115.5t-27.5 144.5t27.5 145t76 116.5t115 78t145.5 28.5q71 0 123 -21.5t95 -54.5v-96q-19 21 -41 39t-49 30.5t-59.5 19.5t-73.5 7q-60 0 -110 -23t-86 -62.5t-56 -92.5t-20 -113t20 -112.5t56 -92
t86 -62t110 -22.5q38 0 70.5 9t61.5 24.5t54.5 36t50.5 42.5v-97zM363 -66h3q12 0 26 -3t26 -10t20 -20t8 -32q0 -24 -11.5 -40t-29.5 -26.5t-39 -15t-40 -4.5q-24 0 -44 5.5t-39 14.5l11 41q27 -10 49 -10q9 0 20 2t21 7.5t17 14t7 21.5q0 16 -11.5 23.5t-29.5 7.5
q-14 0 -31 -7l-17 13l60 88h65z" />
    <glyph glyph-name="Egrave" unicode="&#xc8;" horiz-adv-x="589" 
d="M166 76h385v-76h-471v705h460v-76h-374v-232h345v-76h-345v-245zM205 892l94 20l95 -149h-63z" />
    <glyph glyph-name="Eacute" unicode="&#xc9;" horiz-adv-x="589" 
d="M166 76h385v-76h-471v705h460v-76h-374v-232h345v-76h-345v-245zM265 763h-59l91 149l96 -20z" />
    <glyph glyph-name="Ecircumflex" unicode="&#xca;" horiz-adv-x="589" 
d="M166 76h385v-76h-471v705h460v-76h-374v-232h345v-76h-345v-245zM442 758h-66l-78 82l-76 -82h-66l107 141h73z" />
    <glyph glyph-name="Edieresis" unicode="&#xcb;" horiz-adv-x="589" 
d="M166 76h385v-76h-471v705h460v-76h-374v-232h345v-76h-345v-245zM155 824q0 24 16.5 41.5t42.5 17.5q24 0 42 -17.5t18 -41.5q0 -25 -18 -42t-42 -17q-26 0 -42.5 17t-16.5 42zM347 824q0 24 16.5 41.5t40.5 17.5q26 0 42.5 -17.5t16.5 -41.5q0 -25 -16.5 -42t-42.5 -17
q-24 0 -40.5 17t-16.5 42z" />
    <glyph glyph-name="Igrave" unicode="&#xcc;" horiz-adv-x="231" 
d="M159 0h-84v705h84v-705zM-26 892l94 20l95 -149h-63z" />
    <glyph glyph-name="Iacute" unicode="&#xcd;" horiz-adv-x="228" 
d="M160 0h-84v705h84v-705zM129 763h-59l91 149l96 -20z" />
    <glyph glyph-name="Icircumflex" unicode="&#xce;" horiz-adv-x="249" 
d="M166 0h-84v705h84v-705zM268 758h-66l-78 82l-76 -82h-66l107 141h73z" />
    <glyph glyph-name="Idieresis" unicode="&#xcf;" horiz-adv-x="261" 
d="M172 0h-84v705h84v-705zM-23 823q0 24 16.5 41.5t42.5 17.5q24 0 42 -17.5t18 -41.5q0 -25 -18 -42t-42 -17q-26 0 -42.5 17t-16.5 42zM169 823q0 24 16.5 41.5t40.5 17.5q26 0 42.5 -17.5t16.5 -41.5q0 -25 -16.5 -42t-42.5 -17q-24 0 -40.5 17t-16.5 42z" />
    <glyph glyph-name="Eth" unicode="&#xd0;" horiz-adv-x="730" 
d="M94 705h221q80 0 149 -25t119.5 -71t79 -111t28.5 -145q0 -78 -27 -142.5t-76.5 -111.5t-119 -73t-154.5 -26h-220v705zM179 76h131q71 0 125 20.5t91 57t56 87t19 110.5q0 49 -15.5 98.5t-46.5 89t-76.5 64.5t-104.5 25h-179v-552zM269 329h-271v77h271v-77z" />
    <glyph glyph-name="Ntilde" unicode="&#xd1;" horiz-adv-x="745" 
d="M584 126v579h82v-705h-84l-420 577v-577h-82v700h85zM209 768q14 47 41 75.5t66 28.5q18 0 34.5 -6t31.5 -12.5t29.5 -12.5t27.5 -6q17 0 28 11.5t19 33.5l53 -10q-14 -48 -36.5 -75.5t-57.5 -27.5q-16 0 -31.5 6t-30.5 12.5t-30 12.5t-31 6q-18 0 -34.5 -10.5
t-24.5 -35.5z" />
    <glyph glyph-name="Ograve" unicode="&#xd2;" horiz-adv-x="808" 
d="M769 354q0 -76 -27.5 -143t-76 -117t-115.5 -79t-146 -29q-80 0 -147 28.5t-116 78t-76 116t-27 142.5q0 77 27.5 144t76.5 116.5t116.5 78.5t147.5 29q79 0 145.5 -29t115 -79t75.5 -116t27 -141zM682 350q0 61 -20.5 114t-57.5 92.5t-88 62.5t-111 23
q-62 0 -113.5 -22.5t-88.5 -61.5t-57.5 -91.5t-20.5 -112.5q0 -61 20.5 -114.5t57.5 -92.5t88.5 -61.5t113.5 -22.5q60 0 111 22.5t88 61.5t57.5 91t20.5 112zM309 892l94 20l95 -149h-63z" />
    <glyph glyph-name="Oacute" unicode="&#xd3;" horiz-adv-x="808" 
d="M769 354q0 -76 -27.5 -143t-76 -117t-115.5 -79t-146 -29q-80 0 -147 28.5t-116 78t-76 116t-27 142.5q0 77 27.5 144t76.5 116.5t116.5 78.5t147.5 29q79 0 145.5 -29t115 -79t75.5 -116t27 -141zM682 350q0 61 -20.5 114t-57.5 92.5t-88 62.5t-111 23
q-62 0 -113.5 -22.5t-88.5 -61.5t-57.5 -91.5t-20.5 -112.5q0 -61 20.5 -114.5t57.5 -92.5t88.5 -61.5t113.5 -22.5q60 0 111 22.5t88 61.5t57.5 91t20.5 112zM369 763h-59l91 149l96 -20z" />
    <glyph glyph-name="Ocircumflex" unicode="&#xd4;" horiz-adv-x="808" 
d="M769 354q0 -76 -27.5 -143t-76 -117t-115.5 -79t-146 -29q-80 0 -147 28.5t-116 78t-76 116t-27 142.5q0 77 27.5 144t76.5 116.5t116.5 78.5t147.5 29q79 0 145.5 -29t115 -79t75.5 -116t27 -141zM682 350q0 61 -20.5 114t-57.5 92.5t-88 62.5t-111 23
q-62 0 -113.5 -22.5t-88.5 -61.5t-57.5 -91.5t-20.5 -112.5q0 -61 20.5 -114.5t57.5 -92.5t88.5 -61.5t113.5 -22.5q60 0 111 22.5t88 61.5t57.5 91t20.5 112zM546 758h-66l-78 82l-76 -82h-66l107 141h73z" />
    <glyph glyph-name="Otilde" unicode="&#xd5;" horiz-adv-x="808" 
d="M769 354q0 -76 -27.5 -143t-76 -117t-115.5 -79t-146 -29q-80 0 -147 28.5t-116 78t-76 116t-27 142.5q0 77 27.5 144t76.5 116.5t116.5 78.5t147.5 29q79 0 145.5 -29t115 -79t75.5 -116t27 -141zM682 350q0 61 -20.5 114t-57.5 92.5t-88 62.5t-111 23
q-62 0 -113.5 -22.5t-88.5 -61.5t-57.5 -91.5t-20.5 -112.5q0 -61 20.5 -114.5t57.5 -92.5t88.5 -61.5t113.5 -22.5q60 0 111 22.5t88 61.5t57.5 91t20.5 112zM238 768q14 47 41 75.5t66 28.5q18 0 34.5 -6t31.5 -12.5t29.5 -12.5t27.5 -6q17 0 28 11.5t19 33.5l53 -10
q-14 -48 -36.5 -75.5t-57.5 -27.5q-16 0 -31.5 6t-30.5 12.5t-30 12.5t-31 6q-18 0 -34.5 -10.5t-24.5 -35.5z" />
    <glyph glyph-name="Odieresis" unicode="&#xd6;" horiz-adv-x="808" 
d="M769 354q0 -76 -27.5 -143t-76 -117t-115.5 -79t-146 -29q-80 0 -147 28.5t-116 78t-76 116t-27 142.5q0 77 27.5 144t76.5 116.5t116.5 78.5t147.5 29q79 0 145.5 -29t115 -79t75.5 -116t27 -141zM682 350q0 61 -20.5 114t-57.5 92.5t-88 62.5t-111 23
q-62 0 -113.5 -22.5t-88.5 -61.5t-57.5 -91.5t-20.5 -112.5q0 -61 20.5 -114.5t57.5 -92.5t88.5 -61.5t113.5 -22.5q60 0 111 22.5t88 61.5t57.5 91t20.5 112zM249 823q0 24 16.5 41.5t42.5 17.5q24 0 42 -17.5t18 -41.5q0 -25 -18 -42t-42 -17q-26 0 -42.5 17t-16.5 42z
M441 823q0 24 16.5 41.5t40.5 17.5q26 0 42.5 -17.5t16.5 -41.5q0 -25 -16.5 -42t-42.5 -17q-24 0 -40.5 17t-16.5 42z" />
    <glyph glyph-name="multiply" unicode="&#xd7;" horiz-adv-x="548" 
d="M225 260l-183 182l49 50l183 -184l182 184l50 -50l-182 -182l182 -183l-50 -51l-182 184l-183 -184l-50 50z" />
    <glyph glyph-name="Oslash" unicode="&#xd8;" horiz-adv-x="808" 
d="M123 112q-41 48 -63 109t-22 130q0 77 27.5 144t76.5 116.5t116.5 78.5t147.5 29q69 0 128 -22.5t106 -61.5l80 81l45 -37l-84 -85q42 -48 65 -109.5t23 -130.5q0 -76 -27.5 -143t-76 -117t-115.5 -79t-146 -29q-71 0 -131.5 22.5t-107.5 62.5l-76 -77l-41 42zM582 577
q-14 12 -30 22t-33 18q-53 25 -114 25q-62 0 -113.5 -22.5t-88.5 -61.5t-57.5 -91.5t-20.5 -112.5q0 -53 15 -99t42 -83zM222 129q35 -31 82 -49q48 -17 101 -17q61 0 111.5 22.5t87.5 61.5t57.5 91t20.5 112q0 53 -15.5 99.5t-44.5 84.5l-200 -202z" />
    <glyph glyph-name="Ugrave" unicode="&#xd9;" horiz-adv-x="717" 
d="M360 -15q-69 0 -121.5 21.5t-88 61t-53.5 94.5t-18 122v422h84v-418q0 -104 48.5 -164.5t147.5 -60.5q94 0 144.5 55t50.5 167v421h84v-419q0 -70 -17.5 -126t-52.5 -95t-87 -60t-121 -21zM264 892l94 20l95 -149h-63z" />
    <glyph glyph-name="Uacute" unicode="&#xda;" horiz-adv-x="717" 
d="M360 -15q-69 0 -121.5 21.5t-88 61t-53.5 94.5t-18 122v422h84v-418q0 -104 48.5 -164.5t147.5 -60.5q94 0 144.5 55t50.5 167v421h84v-419q0 -70 -17.5 -126t-52.5 -95t-87 -60t-121 -21zM384 763h-59l91 149l96 -20z" />
    <glyph glyph-name="Ucircumflex" unicode="&#xdb;" horiz-adv-x="717" 
d="M360 -15q-69 0 -121.5 21.5t-88 61t-53.5 94.5t-18 122v422h84v-418q0 -104 48.5 -164.5t147.5 -60.5q94 0 144.5 55t50.5 167v421h84v-419q0 -70 -17.5 -126t-52.5 -95t-87 -60t-121 -21zM502 758h-66l-78 82l-76 -82h-66l107 141h73z" />
    <glyph glyph-name="Udieresis" unicode="&#xdc;" horiz-adv-x="717" 
d="M360 -15q-69 0 -121.5 21.5t-88 61t-53.5 94.5t-18 122v422h84v-418q0 -104 48.5 -164.5t147.5 -60.5q94 0 144.5 55t50.5 167v421h84v-419q0 -70 -17.5 -126t-52.5 -95t-87 -60t-121 -21zM205 823q0 24 16.5 41.5t42.5 17.5q24 0 42 -17.5t18 -41.5q0 -25 -18 -42
t-42 -17q-26 0 -42.5 17t-16.5 42zM397 823q0 24 16.5 41.5t40.5 17.5q26 0 42.5 -17.5t16.5 -41.5q0 -25 -16.5 -42t-42.5 -17q-24 0 -40.5 17t-16.5 42z" />
    <glyph glyph-name="Yacute" unicode="&#xdd;" horiz-adv-x="640" 
d="M369 0h-84v280l-271 425h100l216 -347l214 347h95l-270 -424v-281zM352 763h-59l91 149l96 -20z" />
    <glyph glyph-name="Thorn" unicode="&#xde;" horiz-adv-x="493" 
d="M80 706h79v-131h37q50 0 96 -9t81.5 -31.5t56.5 -61t21 -97.5q0 -54 -18.5 -91.5t-51 -61t-75 -34.5t-90.5 -11h-57v-178h-79v706zM211 251q33 0 62 5.5t51 20t35 39t13 62.5q0 43 -16 68t-41.5 37.5t-58.5 15.5t-68 3h-29v-251h52z" />
    <glyph glyph-name="germandbls" unicode="&#xdf;" horiz-adv-x="592" 
d="M156 0h-80v520q0 47 13 89t40 74t69.5 51t100.5 19q44 0 81 -13t64 -37t42 -57t15 -74q0 -64 -35 -107t-88 -66q35 -6 66 -22t54 -40t36.5 -56.5t13.5 -71.5q0 -53 -21.5 -93t-59.5 -66.5t-90 -39.5t-112 -13v65q44 0 80.5 8.5t63 26t41.5 45.5t15 67q0 38 -13.5 64
t-38.5 43.5t-60 27.5t-78 16v62q30 11 56 23t45.5 28.5t30.5 38.5t11 52q0 55 -34.5 85.5t-88.5 30.5q-37 0 -63 -14t-43 -36.5t-25 -51.5t-8 -59v-519z" />
    <glyph glyph-name="agrave" unicode="&#xe0;" horiz-adv-x="546" 
d="M400 228q-25 14 -58.5 26t-81.5 12q-24 0 -49.5 -5.5t-45.5 -18t-33 -32.5t-13 -49q0 -27 11 -46.5t30 -32t43.5 -19t51.5 -6.5q49 0 84.5 17.5t60.5 47.5v106zM398 49q-34 -30 -72.5 -45t-88.5 -15q-36 0 -71.5 12t-64 35t-46.5 57t-18 78q0 47 19 78t49 50t68 26.5
t75 7.5q43 0 81.5 -7.5t70.5 -26.5v19q0 57 -40.5 80.5t-103.5 23.5q-48 0 -95.5 -11.5t-91.5 -38.5v78q34 15 84 28.5t106 13.5q44 0 84 -11.5t71 -34.5t49.5 -57.5t18.5 -80.5v-308zM178 692l94 20l95 -149h-63z" />
    <glyph glyph-name="aacute" unicode="&#xe1;" horiz-adv-x="546" 
d="M400 228q-25 14 -58.5 26t-81.5 12q-24 0 -49.5 -5.5t-45.5 -18t-33 -32.5t-13 -49q0 -27 11 -46.5t30 -32t43.5 -19t51.5 -6.5q49 0 84.5 17.5t60.5 47.5v106zM398 49q-34 -30 -72.5 -45t-88.5 -15q-36 0 -71.5 12t-64 35t-46.5 57t-18 78q0 47 19 78t49 50t68 26.5
t75 7.5q43 0 81.5 -7.5t70.5 -26.5v19q0 57 -40.5 80.5t-103.5 23.5q-48 0 -95.5 -11.5t-91.5 -38.5v78q34 15 84 28.5t106 13.5q44 0 84 -11.5t71 -34.5t49.5 -57.5t18.5 -80.5v-308zM278 563h-59l91 149l96 -20z" />
    <glyph glyph-name="acircumflex" unicode="&#xe2;" horiz-adv-x="546" 
d="M400 228q-25 14 -58.5 26t-81.5 12q-24 0 -49.5 -5.5t-45.5 -18t-33 -32.5t-13 -49q0 -27 11 -46.5t30 -32t43.5 -19t51.5 -6.5q49 0 84.5 17.5t60.5 47.5v106zM398 49q-34 -30 -72.5 -45t-88.5 -15q-36 0 -71.5 12t-64 35t-46.5 57t-18 78q0 47 19 78t49 50t68 26.5
t75 7.5q43 0 81.5 -7.5t70.5 -26.5v19q0 57 -40.5 80.5t-103.5 23.5q-48 0 -95.5 -11.5t-91.5 -38.5v78q34 15 84 28.5t106 13.5q44 0 84 -11.5t71 -34.5t49.5 -57.5t18.5 -80.5v-308zM415 558h-66l-78 82l-76 -82h-66l107 141h73z" />
    <glyph glyph-name="atilde" unicode="&#xe3;" horiz-adv-x="546" 
d="M400 228q-25 14 -58.5 26t-81.5 12q-24 0 -49.5 -5.5t-45.5 -18t-33 -32.5t-13 -49q0 -27 11 -46.5t30 -32t43.5 -19t51.5 -6.5q49 0 84.5 17.5t60.5 47.5v106zM398 49q-34 -30 -72.5 -45t-88.5 -15q-36 0 -71.5 12t-64 35t-46.5 57t-18 78q0 47 19 78t49 50t68 26.5
t75 7.5q43 0 81.5 -7.5t70.5 -26.5v19q0 57 -40.5 80.5t-103.5 23.5q-48 0 -95.5 -11.5t-91.5 -38.5v78q34 15 84 28.5t106 13.5q44 0 84 -11.5t71 -34.5t49.5 -57.5t18.5 -80.5v-308zM97 568q14 47 41 75.5t66 28.5q18 0 34.5 -6t31.5 -12.5t29.5 -12.5t27.5 -6
q17 0 28 11.5t19 33.5l53 -10q-14 -48 -36.5 -75.5t-57.5 -27.5q-16 0 -31.5 6t-30.5 12.5t-30 12.5t-31 6q-18 0 -34.5 -10.5t-24.5 -35.5z" />
    <glyph glyph-name="adieresis" unicode="&#xe4;" horiz-adv-x="546" 
d="M400 228q-25 14 -58.5 26t-81.5 12q-24 0 -49.5 -5.5t-45.5 -18t-33 -32.5t-13 -49q0 -27 11 -46.5t30 -32t43.5 -19t51.5 -6.5q49 0 84.5 17.5t60.5 47.5v106zM398 49q-34 -30 -72.5 -45t-88.5 -15q-36 0 -71.5 12t-64 35t-46.5 57t-18 78q0 47 19 78t49 50t68 26.5
t75 7.5q43 0 81.5 -7.5t70.5 -26.5v19q0 57 -40.5 80.5t-103.5 23.5q-48 0 -95.5 -11.5t-91.5 -38.5v78q34 15 84 28.5t106 13.5q44 0 84 -11.5t71 -34.5t49.5 -57.5t18.5 -80.5v-308zM118 603q0 24 16.5 41.5t42.5 17.5q24 0 42 -17.5t18 -41.5q0 -25 -18 -42t-42 -17
q-26 0 -42.5 17t-16.5 42zM310 603q0 24 16.5 41.5t40.5 17.5q26 0 42.5 -17.5t16.5 -41.5q0 -25 -16.5 -42t-42.5 -17q-24 0 -40.5 17t-16.5 42z" />
    <glyph glyph-name="aring" unicode="&#xe5;" horiz-adv-x="546" 
d="M400 228q-25 14 -58.5 26t-81.5 12q-24 0 -49.5 -5.5t-45.5 -18t-33 -32.5t-13 -49q0 -27 11 -46.5t30 -32t43.5 -19t51.5 -6.5q49 0 84.5 17.5t60.5 47.5v106zM398 49q-34 -30 -72.5 -45t-88.5 -15q-36 0 -71.5 12t-64 35t-46.5 57t-18 78q0 47 19 78t49 50t68 26.5
t75 7.5q43 0 81.5 -7.5t70.5 -26.5v19q0 57 -40.5 80.5t-103.5 23.5q-48 0 -95.5 -11.5t-91.5 -38.5v78q34 15 84 28.5t106 13.5q44 0 84 -11.5t71 -34.5t49.5 -57.5t18.5 -80.5v-308zM374 668q0 -42 -29.5 -69.5t-73.5 -27.5q-20 0 -38 7.5t-32 21t-22 31.5t-8 39t8 39.5
t22 32t32 21.5t38 8q21 0 40 -8t33 -22t22 -33t8 -40zM330 670q0 23 -16 40t-41 17t-41.5 -16.5t-16.5 -39.5q0 -26 17 -41t41 -15q26 0 41.5 16t15.5 39z" />
    <glyph glyph-name="ae" unicode="&#xe6;" horiz-adv-x="907" 
d="M660 59q57 0 96.5 22.5t68.5 50.5v-88q-30 -24 -73 -39.5t-97 -15.5h-13.5t-13.5 1q-54 5 -96.5 28.5t-71.5 61.5q-45 -47 -101 -69t-121 -22h-12t-12 1q-30 3 -59 14.5t-53 31t-40.5 46.5t-21.5 61q-1 7 -1.5 13.5t-0.5 14.5q0 47 19 78t49 50t68 26.5t75 7.5
q43 0 81.5 -7.5t70.5 -26.5v19q0 57 -40.5 80.5t-103.5 23.5h-12t-12 -1q-42 -2 -83.5 -13.5t-79.5 -35.5v78q34 15 84 28.5t106 13.5h13.5t13.5 -1q53 -5 98 -27t71 -62q29 43 74.5 68t105.5 25q52 0 92.5 -18.5t70 -49.5t47 -72.5t23.5 -88.5l-375 -91q17 -51 58.5 -83.5
t107.5 -32.5zM401 228q-25 14 -58.5 26t-81.5 12q-24 0 -49.5 -5.5t-45.5 -18t-33 -32.5t-13 -49q0 -27 11 -46.5t30 -32t43.5 -19t51.5 -6.5q49 0 84.5 17.5t60.5 47.5v106zM786 316q-13 46 -51.5 77.5t-95.5 31.5q-36 0 -65 -14.5t-48.5 -39.5t-30 -57t-10.5 -67l4 3z" />
    <glyph glyph-name="ccedilla" unicode="&#xe7;" horiz-adv-x="458" 
d="M425 359q-28 30 -62.5 47t-74.5 17q-36 0 -66.5 -13.5t-52 -37t-34 -56t-12.5 -70.5q0 -37 13 -71t35.5 -59.5t53 -40.5t66.5 -15q42 0 77 18t62 47v-90q-29 -18 -66 -31t-82 -13q-52 0 -96 19t-76.5 52.5t-51 79t-18.5 98.5q0 52 18 98t50.5 80t78.5 54t102 20
q36 0 72.5 -10t63.5 -30v-93zM268 -66h3q12 0 26 -3t26 -10t20 -20t8 -32q0 -24 -11.5 -40t-29.5 -26.5t-39 -15t-40 -4.5q-24 0 -44 5.5t-39 14.5l11 41q27 -10 49 -10q9 0 20 2t21 7.5t17 14t7 21.5q0 16 -11.5 23.5t-29.5 7.5q-14 0 -31 -7l-17 13l60 88h65z" />
    <glyph glyph-name="egrave" unicode="&#xe8;" horiz-adv-x="542" 
d="M295 59q57 0 96.5 22.5t68.5 50.5v-88q-30 -24 -73 -39.5t-97 -15.5t-99.5 18.5t-79 51.5t-52.5 79t-19 101q0 54 16.5 100.5t46.5 81t72.5 54.5t95.5 20q52 0 92.5 -18.5t70 -49.5t47 -72.5t23.5 -88.5l-375 -91q17 -51 58.5 -83.5t107.5 -32.5zM124 240l297 76
q-13 46 -51.5 77.5t-95.5 31.5q-37 0 -66 -15t-48.5 -40t-29.5 -57t-10 -66zM180 692l94 20l95 -149h-63z" />
    <glyph glyph-name="eacute" unicode="&#xe9;" horiz-adv-x="542" 
d="M295 59q57 0 96.5 22.5t68.5 50.5v-88q-30 -24 -73 -39.5t-97 -15.5t-99.5 18.5t-79 51.5t-52.5 79t-19 101q0 54 16.5 100.5t46.5 81t72.5 54.5t95.5 20q52 0 92.5 -18.5t70 -49.5t47 -72.5t23.5 -88.5l-375 -91q17 -51 58.5 -83.5t107.5 -32.5zM124 240l297 76
q-13 46 -51.5 77.5t-95.5 31.5q-37 0 -66 -15t-48.5 -40t-29.5 -57t-10 -66zM240 563h-59l91 149l96 -20z" />
    <glyph glyph-name="ecircumflex" unicode="&#xea;" horiz-adv-x="542" 
d="M295 59q57 0 96.5 22.5t68.5 50.5v-88q-30 -24 -73 -39.5t-97 -15.5t-99.5 18.5t-79 51.5t-52.5 79t-19 101q0 54 16.5 100.5t46.5 81t72.5 54.5t95.5 20q52 0 92.5 -18.5t70 -49.5t47 -72.5t23.5 -88.5l-375 -91q17 -51 58.5 -83.5t107.5 -32.5zM124 240l297 76
q-13 46 -51.5 77.5t-95.5 31.5q-37 0 -66 -15t-48.5 -40t-29.5 -57t-10 -66zM417 558h-66l-78 82l-76 -82h-66l107 141h73z" />
    <glyph glyph-name="edieresis" unicode="&#xeb;" horiz-adv-x="542" 
d="M295 59q57 0 96.5 22.5t68.5 50.5v-88q-30 -24 -73 -39.5t-97 -15.5t-99.5 18.5t-79 51.5t-52.5 79t-19 101q0 54 16.5 100.5t46.5 81t72.5 54.5t95.5 20q52 0 92.5 -18.5t70 -49.5t47 -72.5t23.5 -88.5l-375 -91q17 -51 58.5 -83.5t107.5 -32.5zM124 240l297 76
q-13 46 -51.5 77.5t-95.5 31.5q-37 0 -66 -15t-48.5 -40t-29.5 -57t-10 -66zM120 603q0 24 16.5 41.5t42.5 17.5q24 0 42 -17.5t18 -41.5q0 -25 -18 -42t-42 -17q-26 0 -42.5 17t-16.5 42zM312 603q0 24 16.5 41.5t40.5 17.5q26 0 42.5 -17.5t16.5 -41.5q0 -25 -16.5 -42
t-42.5 -17q-24 0 -40.5 17t-16.5 42z" />
    <glyph glyph-name="igrave" unicode="&#xec;" horiz-adv-x="237" 
d="M166 0h-81v482h81v-482zM-28 692l94 20l95 -149h-63z" />
    <glyph glyph-name="iacute" unicode="&#xed;" horiz-adv-x="238" 
d="M143 0h-81v482h81v-482zM129 563h-59l91 149l96 -20z" />
    <glyph glyph-name="icircumflex" unicode="&#xee;" horiz-adv-x="268" 
d="M175 0h-81v482h81v-482zM278 558h-66l-78 82l-76 -82h-66l107 141h73z" />
    <glyph glyph-name="idieresis" unicode="&#xef;" horiz-adv-x="255" 
d="M167 0h-81v482h81v-482zM-27 603q0 24 16.5 41.5t42.5 17.5q24 0 42 -17.5t18 -41.5q0 -25 -18 -42t-42 -17q-26 0 -42.5 17t-16.5 42zM165 603q0 24 16.5 41.5t40.5 17.5q26 0 42.5 -17.5t16.5 -41.5q0 -25 -16.5 -42t-42.5 -17q-24 0 -40.5 17t-16.5 42z" />
    <glyph glyph-name="eth" unicode="&#xf0;" horiz-adv-x="542" 
d="M136 778q24 -15 40.5 -26t31 -21t28 -20.5t29.5 -24.5l129 86l37 -38l-125 -84q17 -17 50 -52t65 -86.5t56 -120t24 -151.5q0 -66 -21.5 -113.5t-55 -78t-74 -45t-79.5 -14.5q-48 0 -90.5 18t-73.5 49.5t-49 73.5t-18 90q0 44 16 85.5t45.5 73.5t71 51.5t91.5 19.5
q31 0 55 -7t42 -16.5t30 -19.5t19 -17q-23 66 -65.5 121t-93.5 103l-124 -83l-37 38l122 82q-12 11 -39 31.5t-78 52.5zM116 221q0 -36 12.5 -66t33.5 -51.5t49.5 -33.5t60.5 -12q35 0 63.5 13t49 35.5t31.5 52t11 62.5q0 32 -11 61.5t-31 52t-48.5 36t-63.5 13.5
q-34 0 -63 -12.5t-50 -34.5t-32.5 -51.5t-11.5 -64.5z" />
    <glyph glyph-name="ntilde" unicode="&#xf1;" horiz-adv-x="559" 
d="M312 493q80 0 127 -47.5t47 -142.5v-303h-82v280q0 41 -10.5 68t-27 43t-38 23t-42.5 7t-44 -6.5t-42.5 -22.5t-32.5 -43.5t-13 -68.5v-280h-82v482l84 -61q27 32 65 52t91 20zM112 568q14 47 41 75.5t66 28.5q18 0 34.5 -6t31.5 -12.5t29.5 -12.5t27.5 -6q17 0 28 11.5
t19 33.5l53 -10q-14 -48 -36.5 -75.5t-57.5 -27.5q-16 0 -31.5 6t-30.5 12.5t-30 12.5t-31 6q-18 0 -34.5 -10.5t-24.5 -35.5z" />
    <glyph glyph-name="ograve" unicode="&#xf2;" 
d="M556 242q0 -52 -19.5 -98t-54 -80.5t-82.5 -54t-104 -19.5q-55 0 -102 19t-81.5 53t-53.5 79.5t-19 98.5t19 99.5t53.5 81t81.5 54t103 19.5t103.5 -19.5t82 -53.5t54 -80t19.5 -99zM473 241q0 38 -13 71.5t-36.5 58.5t-56 39.5t-71.5 14.5t-71 -14.5t-54.5 -39t-35 -58
t-12.5 -71.5q0 -39 13.5 -72.5t36.5 -58t55 -38.5t69 -14q38 0 70.5 14.5t56 39.5t36.5 58t13 70zM162 692l94 20l95 -149h-63z" />
    <glyph glyph-name="oacute" unicode="&#xf3;" 
d="M556 242q0 -52 -19.5 -98t-54 -80.5t-82.5 -54t-104 -19.5q-55 0 -102 19t-81.5 53t-53.5 79.5t-19 98.5t19 99.5t53.5 81t81.5 54t103 19.5t103.5 -19.5t82 -53.5t54 -80t19.5 -99zM473 241q0 38 -13 71.5t-36.5 58.5t-56 39.5t-71.5 14.5t-71 -14.5t-54.5 -39t-35 -58
t-12.5 -71.5q0 -39 13.5 -72.5t36.5 -58t55 -38.5t69 -14q38 0 70.5 14.5t56 39.5t36.5 58t13 70zM342 563h-59l91 149l96 -20z" />
    <glyph glyph-name="ocircumflex" unicode="&#xf4;" 
d="M556 242q0 -52 -19.5 -98t-54 -80.5t-82.5 -54t-104 -19.5q-55 0 -102 19t-81.5 53t-53.5 79.5t-19 98.5t19 99.5t53.5 81t81.5 54t103 19.5t103.5 -19.5t82 -53.5t54 -80t19.5 -99zM473 241q0 38 -13 71.5t-36.5 58.5t-56 39.5t-71.5 14.5t-71 -14.5t-54.5 -39t-35 -58
t-12.5 -71.5q0 -39 13.5 -72.5t36.5 -58t55 -38.5t69 -14q38 0 70.5 14.5t56 39.5t36.5 58t13 70zM440 558h-66l-78 82l-76 -82h-66l107 141h73z" />
    <glyph glyph-name="otilde" unicode="&#xf5;" 
d="M556 242q0 -52 -19.5 -98t-54 -80.5t-82.5 -54t-104 -19.5q-55 0 -102 19t-81.5 53t-53.5 79.5t-19 98.5t19 99.5t53.5 81t81.5 54t103 19.5t103.5 -19.5t82 -53.5t54 -80t19.5 -99zM473 241q0 38 -13 71.5t-36.5 58.5t-56 39.5t-71.5 14.5t-71 -14.5t-54.5 -39t-35 -58
t-12.5 -71.5q0 -39 13.5 -72.5t36.5 -58t55 -38.5t69 -14q38 0 70.5 14.5t56 39.5t36.5 58t13 70zM132 568q14 47 41 75.5t66 28.5q18 0 34.5 -6t31.5 -12.5t29.5 -12.5t27.5 -6q17 0 28 11.5t19 33.5l53 -10q-14 -48 -36.5 -75.5t-57.5 -27.5q-16 0 -31.5 6t-30.5 12.5
t-30 12.5t-31 6q-18 0 -34.5 -10.5t-24.5 -35.5z" />
    <glyph glyph-name="odieresis" unicode="&#xf6;" 
d="M556 242q0 -52 -19.5 -98t-54 -80.5t-82.5 -54t-104 -19.5q-55 0 -102 19t-81.5 53t-53.5 79.5t-19 98.5t19 99.5t53.5 81t81.5 54t103 19.5t103.5 -19.5t82 -53.5t54 -80t19.5 -99zM473 241q0 38 -13 71.5t-36.5 58.5t-56 39.5t-71.5 14.5t-71 -14.5t-54.5 -39t-35 -58
t-12.5 -71.5q0 -39 13.5 -72.5t36.5 -58t55 -38.5t69 -14q38 0 70.5 14.5t56 39.5t36.5 58t13 70zM143 603q0 24 16.5 41.5t42.5 17.5q24 0 42 -17.5t18 -41.5q0 -25 -18 -42t-42 -17q-26 0 -42.5 17t-16.5 42zM335 603q0 24 16.5 41.5t40.5 17.5q26 0 42.5 -17.5
t16.5 -41.5q0 -25 -16.5 -42t-42.5 -17q-24 0 -40.5 17t-16.5 42z" />
    <glyph glyph-name="divide" unicode="&#xf7;" horiz-adv-x="594" 
d="M552 270h-510v66h510v-66zM355 463q0 -23 -16.5 -39.5t-42.5 -16.5t-41.5 16.5t-15.5 39.5t15.5 40.5t41.5 17.5t42.5 -17.5t16.5 -40.5zM355 144q0 -23 -16.5 -40.5t-42.5 -17.5t-41.5 17.5t-15.5 40.5q0 25 15.5 40.5t41.5 15.5t42.5 -15.5t16.5 -40.5z" />
    <glyph glyph-name="oslash" unicode="&#xf8;" horiz-adv-x="594" 
d="M194 88q44 -35 105 -35q40 0 72 14t55 39t35.5 58t12.5 72q0 32 -8.5 58.5t-22.5 49.5zM408 382q-41 36 -106 36q-40 0 -71.5 -14t-53.5 -39t-34 -58t-12 -71q0 -34 6.5 -60t23.5 -49zM109 74q-58 71 -58 162q0 53 18.5 98t51.5 78t79 52t101 19q45 0 84.5 -11t71.5 -37
l55 54l34 -38l-49 -53q26 -33 41.5 -72t15.5 -90q0 -53 -19 -98.5t-52.5 -78.5t-80 -52t-101.5 -19q-48 0 -85 12.5t-69 38.5l-68 -74l-39 39z" />
    <glyph glyph-name="ugrave" unicode="&#xf9;" horiz-adv-x="559" 
d="M247 -10q-80 0 -127 47.5t-47 142.5v303h82v-280q0 -40 10.5 -67.5t27 -43.5t38 -23t42.5 -7t44.5 6.5t43 22.5t32 43.5t12.5 68.5v280h82v-482l-84 61q-27 -32 -65 -52t-91 -20zM157 692l94 20l95 -149h-63z" />
    <glyph glyph-name="uacute" unicode="&#xfa;" horiz-adv-x="559" 
d="M247 -10q-80 0 -127 47.5t-47 142.5v303h82v-280q0 -40 10.5 -67.5t27 -43.5t38 -23t42.5 -7t44.5 6.5t43 22.5t32 43.5t12.5 68.5v280h82v-482l-84 61q-27 -32 -65 -52t-91 -20zM247 563h-59l91 149l96 -20z" />
    <glyph glyph-name="ucircumflex" unicode="&#xfb;" horiz-adv-x="559" 
d="M247 -10q-80 0 -127 47.5t-47 142.5v303h82v-280q0 -40 10.5 -67.5t27 -43.5t38 -23t42.5 -7t44.5 6.5t43 22.5t32 43.5t12.5 68.5v280h82v-482l-84 61q-27 -32 -65 -52t-91 -20zM425 558h-66l-78 82l-76 -82h-66l107 141h73z" />
    <glyph glyph-name="udieresis" unicode="&#xfc;" horiz-adv-x="559" 
d="M247 -10q-80 0 -127 47.5t-47 142.5v303h82v-280q0 -40 10.5 -67.5t27 -43.5t38 -23t42.5 -7t44.5 6.5t43 22.5t32 43.5t12.5 68.5v280h82v-482l-84 61q-27 -32 -65 -52t-91 -20zM128 603q0 24 16.5 41.5t42.5 17.5q24 0 42 -17.5t18 -41.5q0 -25 -18 -42t-42 -17
q-26 0 -42.5 17t-16.5 42zM320 603q0 24 16.5 41.5t40.5 17.5q26 0 42.5 -17.5t16.5 -41.5q0 -25 -16.5 -42t-42.5 -17q-24 0 -40.5 17t-16.5 42z" />
    <glyph glyph-name="yacute" unicode="&#xfd;" horiz-adv-x="505" 
d="M-4 481h89l165 -383l149 383h86l-268 -669h-78l75 188zM250 563h-59l91 149l96 -20z" />
    <glyph glyph-name="thorn" unicode="&#xfe;" horiz-adv-x="556" 
d="M292 57q36 0 63.5 13.5t46 36.5t28 53.5t9.5 63.5t-10 62t-29 50.5t-46.5 34t-62.5 12.5q-33 0 -59 -13t-45 -35t-29 -50.5t-10 -59.5q0 -32 9.5 -62.5t27.5 -54t45 -37.5t62 -14zM76 772h75v-206v-83v-106h2q28 37 67 56t85 19q23 0 46 -5q38 -9 68.5 -30.5t52 -52
t33 -68t11.5 -77.5q0 -41 -11 -78.5t-32.5 -67.5t-52 -51t-69.5 -29q-11 -2 -22.5 -3.5t-24.5 -1.5q-45 0 -84.5 19t-66.5 55h-2v-74v-235h-75v1019z" />
    <glyph glyph-name="ydieresis" unicode="&#xff;" horiz-adv-x="505" 
d="M-4 481h89l165 -383l149 383h86l-268 -669h-78l75 188zM100 603q0 24 16.5 41.5t42.5 17.5q24 0 42 -17.5t18 -41.5q0 -25 -18 -42t-42 -17q-26 0 -42.5 17t-16.5 42zM292 603q0 24 16.5 41.5t40.5 17.5q26 0 42.5 -17.5t16.5 -41.5q0 -25 -16.5 -42t-42.5 -17
q-24 0 -40.5 17t-16.5 42z" />
    <glyph glyph-name="dotlessi" unicode="&#x131;" horiz-adv-x="233" 
d="M157 0h-81v482h81v-482z" />
    <glyph glyph-name="oe" unicode="&#x153;" horiz-adv-x="998" 
d="M751 59q57 0 96.5 22.5t68.5 50.5v-88q-30 -24 -73 -39.5t-97 -15.5q-78 0 -134.5 36.5t-83.5 100.5q-32 -61 -92.5 -98.5t-139.5 -37.5q-55 0 -102 19t-81.5 53t-53.5 79.5t-19 98.5t19 99.5t53.5 81t81.5 54t103 19.5q78 0 138.5 -37t92.5 -97q25 61 75 98t124 37
q52 0 92.5 -18.5t70 -49.5t47 -72.5t23.5 -88.5l-363 -90q8 -25 21 -46.5t31.5 -37t43.5 -24.5t58 -9zM473 241q0 38 -13 71.5t-36.5 58.5t-56 39.5t-71.5 14.5t-71 -14.5t-54.5 -39t-35 -58t-12.5 -71.5q0 -39 13.5 -72.5t36.5 -58t55 -38.5t69 -14q38 0 70.5 14.5t56 39.5
t36.5 58t13 70zM860 316q-13 46 -51.5 77.5t-95.5 31.5q-36 0 -61 -14t-40.5 -38t-22 -55.5t-6.5 -66.5z" />
    <glyph glyph-name="florin" unicode="&#x192;" horiz-adv-x="432" 
d="M114 371h-83l13 68h84l19 92q11 54 31.5 89t45 56t52 29t53.5 8q17 0 33 -2.5t31 -7.5l-14 -72q-9 5 -21 7.5t-24 2.5q-21 0 -38 -6.5t-30.5 -22.5t-24.5 -43t-19 -69l-12 -61h101l-12 -68h-102l-107 -474h-78z" />
    <glyph glyph-name="circumflex" unicode="&#x2c6;" horiz-adv-x="337" 
d="M312 558h-66l-78 82l-76 -82h-66l107 141h73z" />
    <glyph glyph-name="caron" unicode="&#x2c7;" horiz-adv-x="346" 
d="M322 719l-111 -143h-75l-112 143h72l77 -86l78 86h71z" />
    <glyph glyph-name="uni02C9" unicode="&#x2c9;" horiz-adv-x="354" 
d="M315 787h-275v64h275v-64z" />
    <glyph glyph-name="breve" unicode="&#x2d8;" horiz-adv-x="353" 
d="M326 720q-6 -63 -47 -101t-104 -38t-101.5 38t-46.5 101h54q9 -35 34.5 -54t62.5 -19q36 0 60.5 19t33.5 54h54z" />
    <glyph glyph-name="dotaccent" unicode="&#x2d9;" horiz-adv-x="311" 
d="M195 643q0 -23 -16 -37.5t-36 -14.5t-35 14.5t-15 37.5q0 22 15 36.5t35 14.5t36 -14.5t16 -36.5z" />
    <glyph glyph-name="ring" unicode="&#x2da;" horiz-adv-x="307" 
d="M246 668q0 -42 -29.5 -69.5t-73.5 -27.5q-20 0 -38 7.5t-32 21t-22 31.5t-8 39t8 39.5t22 32t32 21.5t38 8q21 0 40 -8t33 -22t22 -33t8 -40zM202 670q0 23 -16 40t-41 17t-41.5 -16.5t-16.5 -39.5q0 -26 17 -41t41 -15q26 0 41.5 16t15.5 39z" />
    <glyph glyph-name="ogonek" unicode="&#x2db;" horiz-adv-x="312" 
d="M246 -170q-19 -8 -35.5 -11.5t-32.5 -3.5q-48 0 -80 24t-32 69q0 29 16 55.5t33 48.5h60q-19 -27 -30 -48t-11 -44q0 -24 16 -39.5t42 -15.5q10 0 20 2t24 6z" />
    <glyph glyph-name="tilde" unicode="&#x2dc;" horiz-adv-x="382" 
d="M26 568q14 47 41 75.5t66 28.5q18 0 34.5 -6t31.5 -12.5t29.5 -12.5t27.5 -6q17 0 28 11.5t19 33.5l53 -10q-14 -48 -36.5 -75.5t-57.5 -27.5q-16 0 -31.5 6t-30.5 12.5t-30 12.5t-31 6q-18 0 -34.5 -10.5t-24.5 -35.5z" />
    <glyph glyph-name="hungarumlaut" unicode="&#x2dd;" horiz-adv-x="333" 
d="M112 576h-66l101 149l89 -16zM263 576h-64l101 149l89 -18z" />
    <glyph glyph-name="tonos" unicode="&#x384;" horiz-adv-x="372" 
d="M179 712h115l-147 -149h-59z" />
    <glyph glyph-name="dieresistonos" unicode="&#x385;" horiz-adv-x="410" 
d="M4 563q0 24 16.5 41.5t42.5 17.5q24 0 42 -17.5t18 -41.5q0 -25 -18 -42t-42 -17q-26 0 -42.5 17t-16.5 42zM213 656h115l-147 -149h-59zM344 504q-24 0 -40.5 17t-16.5 42q0 24 16.5 41.5t40.5 17.5q26 0 42.5 -17.5t16.5 -41.5q0 -25 -16.5 -42t-42.5 -17z" />
    <glyph glyph-name="Alphatonos" unicode="&#x386;" horiz-adv-x="740" 
d="M205 197l-85 -197h-91l308 705h70l309 -705h-93l-84 197h-334zM237 272h270l-135 334zM134 705h115l-147 -149h-59z" />
    <glyph glyph-name="Epsilontonos" unicode="&#x388;" horiz-adv-x="787" 
d="M364 76h385v-76h-471v705h460v-76h-374v-232h345v-76h-345v-245zM91 705h115l-147 -149h-59z" />
    <glyph glyph-name="Etatonos" unicode="&#x389;" horiz-adv-x="908" 
d="M279 706h84v-308h382v308h84v-706h-84v320h-382v-320h-84v706zM91 705h115l-147 -149h-59z" />
    <glyph glyph-name="Iotatonos" unicode="&#x38a;" horiz-adv-x="446" 
d="M366 0h-84v705h84v-705zM91 705h115l-147 -149h-59z" />
    <glyph glyph-name="Omicrontonos" unicode="&#x38c;" horiz-adv-x="912" 
d="M874 354q0 -76 -27.5 -143t-76 -117t-115.5 -79t-146 -29q-80 0 -147 28.5t-116 78t-76 116t-27 142.5q0 77 27.5 144t76.5 116.5t116.5 78.5t147.5 29q79 0 145.5 -29t115 -79t75.5 -116t27 -141zM787 350q0 61 -20.5 114t-57.5 92.5t-88 62.5t-111 23
q-62 0 -113.5 -22.5t-88.5 -61.5t-57.5 -91.5t-20.5 -112.5q0 -61 20.5 -114.5t57.5 -92.5t88.5 -61.5t113.5 -22.5q60 0 111 22.5t88 61.5t57.5 91t20.5 112zM91 705h115l-147 -149h-59z" />
    <glyph glyph-name="Upsilontonos" unicode="&#x38e;" horiz-adv-x="908" 
d="M632 0h-84v280l-271 425h100l216 -347l214 347h95l-270 -424v-281zM91 705h115l-147 -149h-59z" />
    <glyph glyph-name="Omegatonos" unicode="&#x38f;" horiz-adv-x="896" 
d="M540 76q43 26 78 56t60.5 66t39.5 79.5t14 95.5q0 59 -18.5 108.5t-53 85t-82.5 55.5t-108 20t-109 -19.5t-83.5 -55t-53.5 -85t-19 -109.5q0 -52 14.5 -95.5t40.5 -80.5t62.5 -67t79.5 -54v-76h-299v76h177q-78 51 -120 128.5t-42 171.5q0 75 27.5 138t75.5 108.5
t112.5 71t137.5 25.5q76 0 139.5 -25.5t110 -71.5t72.5 -109.5t26 -139.5q0 -93 -42.5 -169.5t-119.5 -127.5h177v-76h-294v76zM91 705h115l-147 -149h-59z" />
    <glyph glyph-name="iotadieresistonos" unicode="&#x390;" horiz-adv-x="297" 
d="M193 0h-81v482h81v-482zM-43 603q0 24 16.5 41.5t42.5 17.5q24 0 42 -17.5t18 -41.5q0 -25 -18 -42t-42 -17q-26 0 -42.5 17t-16.5 42zM166 696h115l-147 -149h-59zM297 544q-24 0 -40.5 17t-16.5 42q0 24 16.5 41.5t40.5 17.5q26 0 42.5 -17.5t16.5 -41.5
q0 -25 -16.5 -42t-42.5 -17z" />
    <glyph glyph-name="Alpha" unicode="&#x391;" horiz-adv-x="737" 
d="M202 197l-85 -197h-91l308 705h70l309 -705h-93l-84 197h-334zM234 272h270l-135 334z" />
    <glyph glyph-name="Beta" unicode="&#x392;" horiz-adv-x="634" 
d="M80 705h201q46 0 90.5 -9t79 -30t55.5 -55t21 -84q0 -56 -25.5 -99t-76.5 -62q44 -6 75.5 -21.5t51.5 -38.5t29.5 -51.5t9.5 -60.5q0 -39 -15.5 -74.5t-49.5 -62t-87.5 -42t-129.5 -15.5h-229v705zM164 396h127q79 0 115.5 34.5t36.5 84.5q0 60 -41.5 88t-110.5 28h-127
v-235zM164 74h159q96 0 140 32t44 92q0 30 -11.5 53t-37 39t-67 24t-101.5 8h-126v-248z" />
    <glyph glyph-name="Gamma" unicode="&#x393;" horiz-adv-x="551" 
d="M165 0h-85v705h457v-76h-372v-629z" />
    <glyph glyph-name="uni0394" unicode="&#x394;" horiz-adv-x="753" 
d="M600 75l-226 531l-225 -531h451zM26 0l313 705h70l314 -705h-697z" />
    <glyph glyph-name="Epsilon" unicode="&#x395;" horiz-adv-x="589" 
d="M166 76h385v-76h-471v705h460v-76h-374v-232h345v-76h-345v-245z" />
    <glyph glyph-name="Zeta" unicode="&#x396;" horiz-adv-x="666" 
d="M141 75h472v-75h-582v72l500 558h-472v75h575v-73z" />
    <glyph glyph-name="Eta" unicode="&#x397;" horiz-adv-x="709" 
d="M80 706h84v-308h382v308h84v-706h-84v320h-382v-320h-84v706z" />
    <glyph glyph-name="Theta" unicode="&#x398;" horiz-adv-x="807" 
d="M769 354q0 -76 -27.5 -143t-76 -117t-115.5 -79t-146 -29q-80 0 -147 28.5t-116 78t-76 116t-27 142.5q0 77 27.5 144t76.5 116.5t116.5 78.5t147.5 29q79 0 145.5 -29t115 -79t75.5 -116t27 -141zM682 350q0 61 -20.5 114t-57.5 92.5t-88 62.5t-111 23
q-62 0 -113.5 -22.5t-88.5 -61.5t-57.5 -91.5t-20.5 -112.5q0 -61 20.5 -114.5t57.5 -92.5t88.5 -61.5t113.5 -22.5q60 0 111 22.5t88 61.5t57.5 91t20.5 112zM225 314v84h357v-84h-357z" />
    <glyph glyph-name="Iota" unicode="&#x399;" horiz-adv-x="243" 
d="M164 0h-84v705h84v-705z" />
    <glyph glyph-name="Kappa" unicode="&#x39a;" horiz-adv-x="557" 
d="M164 409l267 296h108l-303 -330l331 -375h-108l-295 330v-330h-84v705h84v-296z" />
    <glyph glyph-name="Lambda" unicode="&#x39b;" horiz-adv-x="713" 
d="M359 606l-242 -606h-91l298 705h70l299 -705h-93z" />
    <glyph glyph-name="Mu" unicode="&#x39c;" horiz-adv-x="836" 
d="M145 565v-565h-84v700h82l275 -421l275 421h82v-700h-84v565l-273 -412z" />
    <glyph glyph-name="Nu" unicode="&#x39d;" horiz-adv-x="745" 
d="M584 126v579h82v-705h-84l-420 577v-577h-82v700h85z" />
    <glyph glyph-name="Xi" unicode="&#x39e;" horiz-adv-x="554" 
d="M56 619v86h450v-86h-450zM45 0v86h472v-86h-472zM85 316v86h392v-86h-392z" />
    <glyph glyph-name="Omicron" unicode="&#x39f;" horiz-adv-x="808" 
d="M769 354q0 -76 -27.5 -143t-76 -117t-115.5 -79t-146 -29q-80 0 -147 28.5t-116 78t-76 116t-27 142.5q0 77 27.5 144t76.5 116.5t116.5 78.5t147.5 29q79 0 145.5 -29t115 -79t75.5 -116t27 -141zM682 350q0 61 -20.5 114t-57.5 92.5t-88 62.5t-111 23
q-62 0 -113.5 -22.5t-88.5 -61.5t-57.5 -91.5t-20.5 -112.5q0 -61 20.5 -114.5t57.5 -92.5t88.5 -61.5t113.5 -22.5q60 0 111 22.5t88 61.5t57.5 91t20.5 112z" />
    <glyph glyph-name="Pi" unicode="&#x3a0;" horiz-adv-x="690" 
d="M80 706h530v-706h-84v628h-362v-628h-84v706z" />
    <glyph glyph-name="Rho" unicode="&#x3a1;" horiz-adv-x="601" 
d="M80 705h227q56 0 102.5 -14t79.5 -41t51 -65.5t18 -87.5q0 -52 -20 -92.5t-55 -68.5t-82 -42.5t-101 -14.5h-134v-281h-86v707zM166 355h132q82 0 128 36.5t46 101.5q0 68 -45 102t-127 34h-134v-274z" />
    <glyph glyph-name="Sigma" unicode="&#x3a3;" horiz-adv-x="638" 
d="M40 632v73h565v-75h-462l245 -275l-251 -280h472v-75h-582v72l257 283z" />
    <glyph glyph-name="Tau" unicode="&#x3a4;" horiz-adv-x="502" 
d="M293 0h-84v629h-210v76h504v-76h-210v-629z" />
    <glyph glyph-name="Upsilon" unicode="&#x3a5;" horiz-adv-x="639" 
d="M365 0h-84v280l-271 425h100l216 -347l214 347h95l-270 -424v-281z" />
    <glyph glyph-name="Phi" unicode="&#x3a6;" horiz-adv-x="844" 
d="M466 651q29 -1 54 -6q71 -11 124.5 -38.5t89.5 -66.5t54 -87t18 -101q0 -54 -18 -102t-54 -87t-89.5 -66t-124.5 -39q-25 -4 -54 -6v-57h-84v57q-28 1 -55 6q-72 11 -126 37.5t-90.5 65t-54.5 87t-18 102.5t18 103t54.5 88t90.5 66t126 38q27 5 55 6v59h84v-59zM466 129
q66 5 114 22.5t78.5 46.5t45.5 67.5t15 83.5q0 46 -15 85t-46 68.5t-78.5 48t-113.5 23.5v-445zM382 574q-130 -9 -193.5 -69.5t-63.5 -152.5q0 -93 63.5 -153.5t193.5 -69.5v445z" />
    <glyph glyph-name="Chi" unicode="&#x3a7;" horiz-adv-x="658" 
d="M137 705l195 -279l191 279h96l-240 -342l253 -363h-97l-206 296l-204 -296h-99l255 361l-243 344h99z" />
    <glyph glyph-name="Psi" unicode="&#x3a8;" horiz-adv-x="741" 
d="M611 705h84v-262q0 -76 -20 -133.5t-56.5 -96.5t-88.5 -58.5t-116 -19.5v-135h-84v135q-63 0 -115 19.5t-89 58.5t-57 96.5t-20 133.5v262h84v-267q0 -48 11 -89t35 -71.5t61 -47.5t89 -17v492h84v-492q52 0 89.5 17t61.5 47.5t35.5 71.5t11.5 89v267z" />
    <glyph glyph-name="uni03A9" unicode="&#x3a9;" horiz-adv-x="793" 
d="M438 76q43 26 78 56t60.5 66t39.5 79.5t14 95.5q0 59 -18.5 108.5t-53 85t-82.5 55.5t-108 20t-109 -19.5t-83.5 -55t-53.5 -85t-19 -109.5q0 -52 14.5 -95.5t40.5 -80.5t62.5 -67t79.5 -54v-76h-299v76h177q-78 51 -120 128.5t-42 171.5q0 75 27.5 138t75.5 108.5
t112.5 71t137.5 25.5q76 0 139.5 -25.5t110 -71.5t72.5 -109.5t26 -139.5q0 -93 -42.5 -169.5t-119.5 -127.5h177v-76h-294v76z" />
    <glyph glyph-name="Iotadieresis" unicode="&#x3aa;" horiz-adv-x="263" 
d="M172 0h-84v705h84v-705zM-23 763q0 24 16.5 41.5t42.5 17.5q24 0 42 -17.5t18 -41.5q0 -25 -18 -42t-42 -17q-26 0 -42.5 17t-16.5 42zM169 763q0 24 16.5 41.5t40.5 17.5q26 0 42.5 -17.5t16.5 -41.5q0 -25 -16.5 -42t-42.5 -17q-24 0 -40.5 17t-16.5 42z" />
    <glyph glyph-name="Upsilondieresis" unicode="&#x3ab;" horiz-adv-x="639" 
d="M365 0h-84v280l-271 425h100l216 -347l214 347h95l-270 -424v-281zM169 763q0 24 16.5 41.5t42.5 17.5q24 0 42 -17.5t18 -41.5q0 -25 -18 -42t-42 -17q-26 0 -42.5 17t-16.5 42zM361 763q0 24 16.5 41.5t40.5 17.5q26 0 42.5 -17.5t16.5 -41.5q0 -25 -16.5 -42
t-42.5 -17q-24 0 -40.5 17t-16.5 42z" />
    <glyph glyph-name="alphatonos" unicode="&#x3ac;" horiz-adv-x="571" 
d="M281 424q-40 0 -71.5 -14t-53.5 -39t-33.5 -58.5t-11.5 -71.5q0 -36 12 -69t34.5 -58t53.5 -40t69 -15t69.5 15t55 40t36.5 58.5t13 69.5t-13 69t-36 58t-54.5 40t-69.5 15zM449 87q-36 -45 -79 -71.5t-103 -26.5q-53 0 -97 20t-75.5 54.5t-49 80t-17.5 97.5q0 53 17 99
t48.5 80t75.5 54t98 20q59 0 103 -25.5t79 -71.5v85h82v-482zM358 712h115l-147 -149h-59z" />
    <glyph glyph-name="epsilontonos" unicode="&#x3ad;" horiz-adv-x="407" 
d="M243 59q23 0 53 6.5t65 24.5l18 -70q-35 -14 -70.5 -22t-70.5 -8q-40 0 -76 10.5t-63 30t-42.5 46t-15.5 57.5q0 43 30 75t85 45q-48 17 -71.5 48.5t-23.5 67.5q0 29 13.5 52t37.5 39t55.5 24.5t67.5 8.5q35 0 68 -7.5t65 -20.5l-21 -73q-26 17 -54.5 24.5t-55.5 7.5
q-40 0 -66.5 -16t-26.5 -45q0 -33 31.5 -53t87.5 -20h32v-68h-31q-74 0 -107 -25.5t-33 -57.5q0 -35 34 -58t85 -23zM271 712h115l-147 -149h-59z" />
    <glyph glyph-name="etatonos" unicode="&#x3ae;" horiz-adv-x="539" 
d="M302 493q80 0 127 -47.5t47 -142.5v-303h-82v280q0 41 -10.5 68t-27 43t-38 23t-42.5 7t-44 -6.5t-42.5 -22.5t-32.5 -43.5t-13 -68.5v-280h-82v482l84 -61q27 32 65 52t91 20zM325 712h115l-147 -149h-59z" />
    <glyph glyph-name="iotatonos" unicode="&#x3af;" horiz-adv-x="303" 
d="M157 0h-81v482h81v-482zM174 712h115l-147 -149h-59z" />
    <glyph glyph-name="upsilondieresistonos" unicode="&#x3b0;" horiz-adv-x="521" 
d="M459 220q0 -107 -49 -169t-156 -62q-109 0 -159 58.5t-50 170.5v265h82v-288q0 -57 31 -95.5t94 -38.5q29 0 52 10.5t39.5 28.5t25 42t8.5 51v290h82v-263zM67 603q0 24 16.5 41.5t42.5 17.5q24 0 42 -17.5t18 -41.5q0 -25 -18 -42t-42 -17q-26 0 -42.5 17t-16.5 42z
M276 696h115l-147 -149h-59zM407 544q-24 0 -40.5 17t-16.5 42q0 24 16.5 41.5t40.5 17.5q26 0 42.5 -17.5t16.5 -41.5q0 -25 -16.5 -42t-42.5 -17z" />
    <glyph glyph-name="alpha" unicode="&#x3b1;" horiz-adv-x="571" 
d="M281 424q-40 0 -71.5 -14t-53.5 -39t-33.5 -58.5t-11.5 -71.5q0 -36 12 -69t34.5 -58t53.5 -40t69 -15t69.5 15t55 40t36.5 58.5t13 69.5t-13 69t-36 58t-54.5 40t-69.5 15zM449 87q-36 -45 -79 -71.5t-103 -26.5q-53 0 -97 20t-75.5 54.5t-49 80t-17.5 97.5q0 53 17 99
t48.5 80t75.5 54t98 20q59 0 103 -25.5t79 -71.5v85h82v-482z" />
    <glyph glyph-name="beta" unicode="&#x3b2;" horiz-adv-x="612" 
d="M346 62q30 0 56 10.5t45.5 29.5t30.5 45.5t11 57.5q0 63 -49 103t-147 45v62q33 6 61.5 16t48.5 25.5t31.5 38t11.5 52.5q0 56 -37.5 86.5t-97.5 30.5q-40 0 -69.5 -14t-48.5 -36.5t-28 -51.5t-9 -60v-261q0 -39 14.5 -71.5t40 -56.5t60.5 -37.5t75 -13.5zM350 -10
q-60 0 -110.5 24.5t-83.5 69.5v-272h-82v691q0 47 14 89t43 74t74 51t107 19q49 0 89 -13t68.5 -36.5t44 -57t15.5 -74.5q0 -61 -35 -99t-93 -64q41 -3 73 -18.5t53.5 -41t33 -58t11.5 -69.5q0 -46 -17.5 -85t-47.5 -68t-70.5 -45.5t-86.5 -16.5z" />
    <glyph glyph-name="gamma" unicode="&#x3b3;" horiz-adv-x="501" 
d="M278 -188h-82v188l-202 481h90l154 -390l155 390h86l-201 -479v-190z" />
    <glyph glyph-name="delta" unicode="&#x3b4;" 
d="M473 240q0 32 -11 62.5t-32 53.5t-52.5 37t-72.5 14q-39 0 -72 -12t-57.5 -34t-38.5 -53t-14 -68q0 -36 12.5 -68.5t35 -57.5t55 -40t71.5 -15t71.5 15.5t56 41t36 58t12.5 66.5zM408 493q28 -25 54.5 -51.5t47.5 -57t33.5 -66t12.5 -77.5q0 -52 -20.5 -98t-56 -80
t-82.5 -53.5t-101 -19.5q-52 0 -99 19t-81.5 52.5t-55 79.5t-20.5 100q0 50 20 95.5t56 78.5t85 50.5t107 12.5l-218 188v70h398v-70h-274z" />
    <glyph glyph-name="epsilon" unicode="&#x3b5;" horiz-adv-x="400" 
d="M243 59q23 0 53 6.5t65 24.5l18 -70q-35 -14 -70.5 -22t-70.5 -8q-40 0 -76 10.5t-63 30t-42.5 46t-15.5 57.5q0 43 30 75t85 45q-48 17 -71.5 48.5t-23.5 67.5q0 29 13.5 52t37.5 39t55.5 24.5t67.5 8.5q35 0 68 -7.5t65 -20.5l-21 -73q-26 17 -54.5 24.5t-55.5 7.5
q-40 0 -66.5 -16t-26.5 -45q0 -33 31.5 -53t87.5 -20h32v-68h-31q-74 0 -107 -25.5t-33 -57.5q0 -35 34 -58t85 -23z" />
    <glyph glyph-name="zeta" unicode="&#x3b6;" horiz-adv-x="411" 
d="M409 650q-58 -36 -110 -86t-91 -107t-61.5 -118.5t-22.5 -120.5q0 -62 31 -103t110 -55q76 -13 107 -51.5t31 -88.5q0 -26 -5.5 -48t-10.5 -39l-80 8q8 21 11 39.5t3 32.5q0 12 -3 24t-11.5 22.5t-24.5 19t-43 13.5q-90 15 -144 69t-54 155q0 117 74.5 234t217.5 216
h-247v70h323v-86z" />
    <glyph glyph-name="eta" unicode="&#x3b7;" horiz-adv-x="539" 
d="M302 493q80 0 127 -47.5t47 -142.5v-303h-82v280q0 41 -10.5 68t-27 43t-38 23t-42.5 7t-44 -6.5t-42.5 -22.5t-32.5 -43.5t-13 -68.5v-280h-82v482l84 -61q27 32 65 52t91 20z" />
    <glyph glyph-name="theta" unicode="&#x3b8;" horiz-adv-x="594" 
d="M298 736q57 0 104.5 -25.5t81.5 -73t53 -116t19 -154.5q0 -35 -3 -67q-13 -145 -78.5 -227.5t-177.5 -82.5q-106 0 -174 81.5t-81 235.5q-1 12 -1.5 24t-0.5 25q0 42 4.5 86.5t16.5 86.5t31.5 80t48.5 66t68 44.5t89 16.5zM125 344q3 -70 18 -123t38 -89t53.5 -54.5
t63.5 -18.5q46 0 78.5 27t52.5 65l4 8t4 9q14 35 23 78.5t11 97.5h-346zM471 412q-3 57 -16.5 101.5t-34.5 76.5q-25 38 -56.5 57.5t-66.5 19.5q-41 0 -73 -24t-52 -57q-20 -32 -32 -76t-15 -98h346z" />
    <glyph glyph-name="iota" unicode="&#x3b9;" horiz-adv-x="186" 
d="M157 0h-81v482h81v-482z" />
    <glyph glyph-name="kappa" unicode="&#x3ba;" horiz-adv-x="451" 
d="M147 281l184 201h105l-219 -228l228 -254h-101l-197 216v-216h-82v482h82v-201z" />
    <glyph glyph-name="lambda" unicode="&#x3bb;" horiz-adv-x="511" 
d="M202 509q-4 8 -15 34.5t-25 55.5t-30 51.5t-30 22.5q-11 0 -21.5 -3.5t-20.5 -8.5l-20 67q17 3 33.5 5.5t33.5 2.5q29 0 49.5 -11.5t36 -30.5t26.5 -42t21 -46l256 -606h-86l-166 411l-148 -411h-89l195 508v1z" />
    <glyph glyph-name="uni03BC" unicode="&#x3bc;" horiz-adv-x="518" 
d="M158 64v-252h-82v671h82v-279q0 -39 10.5 -66t27 -44t37 -25t41.5 -8q27 0 51.5 8.5t43 26.5t29 45t10.5 63v279h82v-483l-83 62q-21 -30 -56 -51t-77 -21q-35 0 -66 18t-50 56z" />
    <glyph glyph-name="nu" unicode="&#x3bd;" horiz-adv-x="514" 
d="M287 0h-81l-202 481h90l154 -390l155 390h86z" />
    <glyph glyph-name="xi" unicode="&#x3be;" horiz-adv-x="408" 
d="M236 -8q-54 9 -91 30t-60.5 48t-34 59t-10.5 63q0 35 11.5 66.5t32 57t48 42.5t58.5 23q-51 20 -78 57t-27 85t29.5 87t89.5 56h-131v70h323v-73q-38 0 -78.5 -5.5t-73.5 -20.5t-54.5 -41.5t-21.5 -69.5q0 -53 37 -82t126 -29v-69q-47 0 -85.5 -7.5t-65.5 -24.5
t-42 -44.5t-15 -67.5q0 -60 35.5 -94.5t99.5 -47.5q42 -8 69.5 -22t43.5 -32t22.5 -39.5t6.5 -43.5q0 -26 -5.5 -49.5t-10.5 -40.5l-80 8q8 21 11 37.5t3 31.5q0 9 -1.5 21t-9.5 24t-24.5 22t-46.5 15z" />
    <glyph glyph-name="omicron" unicode="&#x3bf;" 
d="M556 242q0 -52 -19.5 -98t-54 -80.5t-82.5 -54t-104 -19.5q-55 0 -102 19t-81.5 53t-53.5 79.5t-19 98.5t19 99.5t53.5 81t81.5 54t103 19.5t103.5 -19.5t82 -53.5t54 -80t19.5 -99zM473 241q0 38 -13 71.5t-36.5 58.5t-56 39.5t-71.5 14.5t-71 -14.5t-54.5 -39t-35 -58
t-12.5 -71.5q0 -39 13.5 -72.5t36.5 -58t55 -38.5t69 -14q38 0 70.5 14.5t56 39.5t36.5 58t13 70z" />
    <glyph glyph-name="pi" unicode="&#x3c0;" horiz-adv-x="529" 
d="M466 482v-482h-82v414h-240v-414h-82v482h404z" />
    <glyph glyph-name="rho" unicode="&#x3c1;" horiz-adv-x="616" 
d="M494 242q0 38 -12.5 70.5t-35 57t-54 38.5t-70.5 14q-37 0 -68.5 -14t-55 -39t-36.5 -59t-13 -75q0 -38 13.5 -70.5t37 -56t56 -36.5t70.5 -13q39 0 70 15t53 40t33.5 58t11.5 70zM71 242q0 56 19 102t53 79.5t80.5 52t101.5 18.5q54 0 100 -18.5t79.5 -51.5t52.5 -79.5
t19 -102.5q0 -52 -17 -97.5t-48.5 -80t-76 -54.5t-98.5 -20q-58 0 -104 24.5t-79 69.5v-272h-82v430z" />
    <glyph glyph-name="uni03C2" unicode="&#x3c2;" horiz-adv-x="491" 
d="M315 -159q14 40 14 80q0 26 -23 42t-73 33q-88 29 -135 95.5t-47 157.5q0 52 16.5 96.5t46.5 77t73 51t95 18.5q33 0 65 -6.5t61 -20.5l-11 -67q-25 11 -57.5 18t-59.5 7q-36 0 -63.5 -15t-46 -40t-27.5 -56.5t-9 -64.5q0 -40 10.5 -70t30.5 -52t48 -38.5t63 -29.5
q26 -10 48.5 -21.5t39.5 -27t27 -36.5t10 -52q0 -23 -4 -45t-12 -42z" />
    <glyph glyph-name="sigma" unicode="&#x3c3;" horiz-adv-x="616" 
d="M462 412q51 -32 72.5 -80.5t21.5 -95.5q0 -51 -22 -96t-58.5 -78t-83 -52.5t-96.5 -19.5q-55 0 -102 19.5t-81.5 53t-53.5 78t-19 93.5q0 46 18.5 90.5t54 79.5t87 56.5t118.5 21.5h286v-70h-142zM473 235q0 39 -12.5 71.5t-35 56.5t-54.5 37t-72 13t-72.5 -14
t-55.5 -38.5t-35.5 -56.5t-12.5 -68q0 -35 13.5 -67t36.5 -56.5t55 -39t69 -14.5q38 0 70 13.5t55.5 37.5t37 56t13.5 69z" />
    <glyph glyph-name="tau" unicode="&#x3c4;" horiz-adv-x="344" 
d="M335 482v-70h-133v-289q0 -28 10.5 -46t37.5 -18q9 0 18.5 2.5t16.5 7.5v-69q-11 -5 -23 -8t-26 -3q-51 0 -82.5 34.5t-31.5 96.5v292h-128v70h341z" />
    <glyph glyph-name="upsilon" unicode="&#x3c5;" horiz-adv-x="521" 
d="M459 220q0 -107 -49 -169t-156 -62q-109 0 -159 58.5t-50 170.5v265h82v-288q0 -57 31 -95.5t94 -38.5q29 0 52 10.5t39.5 28.5t25 42t8.5 51v290h82v-263z" />
    <glyph glyph-name="phi" unicode="&#x3c6;" horiz-adv-x="720" 
d="M401 61q96 8 146 59.5t50 150.5q0 25 -5.5 53t-18 52t-33 40t-50.5 16q-18 0 -34 -8t-28 -28t-19.5 -54t-7.5 -86v-195zM318 -10q-59 4 -109.5 23t-88 53.5t-59 83.5t-21.5 112q0 72 32 135t82 103h94q-67 -60 -96 -118.5t-29 -114.5q0 -45 14 -82t40 -64t62 -42.5
t79 -18.5v151q0 49 3 100.5t19.5 94t52 69.5t101.5 27q88 0 137 -62t49 -168q0 -67 -20 -117.5t-57 -85.5t-88 -54.5t-114 -23.5v-175h-83v174z" />
    <glyph glyph-name="chi" unicode="&#x3c7;" horiz-adv-x="494" 
d="M386 481h90l-182 -305l196 -364h-94l-147 281l-147 -281h-90l195 359l-182 310h94l133 -229z" />
    <glyph glyph-name="psi" unicode="&#x3c8;" horiz-adv-x="685" 
d="M310 -10q-116 0 -182 62t-66 180v251h82v-248q0 -55 15.5 -89.5t39.5 -53t53.5 -25t56.5 -6.5v671h83v-671q26 0 54.5 8t52.5 28t40 53t16 83v250h82v-249q0 -67 -19.5 -113.5t-53 -75.5t-78 -42t-94.5 -13v-178h-82v178z" />
    <glyph glyph-name="omega" unicode="&#x3c9;" horiz-adv-x="768" 
d="M425 246q0 -57 9 -94.5t24 -60t34 -31.5t38 -9q27 0 48 14.5t36 40t23 60t8 74.5q0 72 -29.5 134.5t-95.5 125.5h94q51 -47 82.5 -110.5t31.5 -146.5q0 -54 -13.5 -100.5t-39 -80t-62 -53t-81.5 -19.5q-54 0 -91.5 25.5t-57.5 65.5q-19 -40 -58 -65.5t-92 -25.5
q-45 0 -81 19.5t-60.5 53t-38 80t-13.5 100.5q0 83 31.5 146.5t82.5 110.5h93q-66 -60 -95 -124t-29 -136q0 -39 8 -73.5t22.5 -60t35 -40.5t46.5 -15q33 0 54 20.5t32.5 50.5t16 64t4.5 60v106h83v-106z" />
    <glyph glyph-name="iotadieresis" unicode="&#x3ca;" horiz-adv-x="260" 
d="M172 0h-81v482h81v-482zM-22 573q0 24 16.5 41.5t42.5 17.5q24 0 42 -17.5t18 -41.5q0 -25 -18 -42t-42 -17q-26 0 -42.5 17t-16.5 42zM170 573q0 24 16.5 41.5t40.5 17.5q26 0 42.5 -17.5t16.5 -41.5q0 -25 -16.5 -42t-42.5 -17q-24 0 -40.5 17t-16.5 42z" />
    <glyph glyph-name="upsilondieresis" unicode="&#x3cb;" horiz-adv-x="521" 
d="M459 220q0 -107 -49 -169t-156 -62q-109 0 -159 58.5t-50 170.5v265h82v-288q0 -57 31 -95.5t94 -38.5q29 0 52 10.5t39.5 28.5t25 42t8.5 51v290h82v-263zM98 573q0 24 16.5 41.5t42.5 17.5q24 0 42 -17.5t18 -41.5q0 -25 -18 -42t-42 -17q-26 0 -42.5 17t-16.5 42z
M290 573q0 24 16.5 41.5t40.5 17.5q26 0 42.5 -17.5t16.5 -41.5q0 -25 -16.5 -42t-42.5 -17q-24 0 -40.5 17t-16.5 42z" />
    <glyph glyph-name="omicrontonos" unicode="&#x3cc;" 
d="M556 242q0 -52 -19.5 -98t-54 -80.5t-82.5 -54t-104 -19.5q-55 0 -102 19t-81.5 53t-53.5 79.5t-19 98.5t19 99.5t53.5 81t81.5 54t103 19.5t103.5 -19.5t82 -53.5t54 -80t19.5 -99zM473 241q0 38 -13 71.5t-36.5 58.5t-56 39.5t-71.5 14.5t-71 -14.5t-54.5 -39t-35 -58
t-12.5 -71.5q0 -39 13.5 -72.5t36.5 -58t55 -38.5t69 -14q38 0 70.5 14.5t56 39.5t36.5 58t13 70zM369 712h115l-147 -149h-59z" />
    <glyph glyph-name="upsilontonos" unicode="&#x3cd;" horiz-adv-x="521" 
d="M459 220q0 -107 -49 -169t-156 -62q-109 0 -159 58.5t-50 170.5v265h82v-288q0 -57 31 -95.5t94 -38.5q29 0 52 10.5t39.5 28.5t25 42t8.5 51v290h82v-263zM326 712h115l-147 -149h-59z" />
    <glyph glyph-name="omegatonos" unicode="&#x3ce;" horiz-adv-x="768" 
d="M425 246q0 -57 9 -94.5t24 -60t34 -31.5t38 -9q27 0 48 14.5t36 40t23 60t8 74.5q0 72 -29.5 134.5t-95.5 125.5h94q51 -47 82.5 -110.5t31.5 -146.5q0 -54 -13.5 -100.5t-39 -80t-62 -53t-81.5 -19.5q-54 0 -91.5 25.5t-57.5 65.5q-19 -40 -58 -65.5t-92 -25.5
q-45 0 -81 19.5t-60.5 53t-38 80t-13.5 100.5q0 83 31.5 146.5t82.5 110.5h93q-66 -60 -95 -124t-29 -136q0 -39 8 -73.5t22.5 -60t35 -40.5t46.5 -15q33 0 54 20.5t32.5 50.5t16 64t4.5 60v106h83v-106zM439 712h115l-147 -149h-59z" />
    <glyph glyph-name="endash" unicode="&#x2013;" horiz-adv-x="501" 
d="M469 246h-438v76h438v-76z" />
    <glyph glyph-name="emdash" unicode="&#x2014;" horiz-adv-x="745" 
d="M714 246h-683v76h683v-76z" />
    <glyph glyph-name="quoteleft" unicode="&#x2018;" horiz-adv-x="197" 
d="M107 707h66l-54 -246h-82z" />
    <glyph glyph-name="quoteright" unicode="&#x2019;" horiz-adv-x="196" 
d="M101 459h-65l54 246h82z" />
    <glyph glyph-name="quotesinglbase" unicode="&#x201a;" horiz-adv-x="197" 
d="M87 -140h-65l53 246h83z" />
    <glyph glyph-name="quotedblleft" unicode="&#x201c;" horiz-adv-x="362" 
d="M106 707h66l-54 -246h-82zM274 707h65l-53 -246h-81z" />
    <glyph glyph-name="quotedblright" unicode="&#x201d;" horiz-adv-x="363" 
d="M101 459h-65l54 246h82zM270 459h-65l54 246h80z" />
    <glyph glyph-name="quotedblbase" unicode="&#x201e;" horiz-adv-x="364" 
d="M86 -140h-65l54 246h82zM255 -140h-65l54 246h80z" />
    <glyph glyph-name="dagger" unicode="&#x2020;" horiz-adv-x="435" 
d="M246 541l144 5v-63l-146 6l8 -426h-71l8 426l-144 -6v63l142 -5l-6 167h71z" />
    <glyph glyph-name="daggerdbl" unicode="&#x2021;" horiz-adv-x="430" 
d="M184 94l-139 -4v64l140 -5q-6 171 0 342l-140 -6v64l139 -4l-2 163h68l-5 -163l140 4v-64l-140 6q6 -171 0 -342l140 5v-64l-140 4l5 -155h-68z" />
    <glyph glyph-name="bullet" unicode="&#x2022;" horiz-adv-x="369" 
d="M37 353q0 30 11.5 57.5t31.5 47.5t46.5 32t57.5 12q30 0 57 -11.5t47.5 -31.5t32 -46.5t11.5 -57.5t-11.5 -58t-31.5 -47t-47 -31.5t-58 -11.5q-30 0 -56.5 11.5t-47 31.5t-32 46.5t-11.5 56.5z" />
    <glyph glyph-name="ellipsis" unicode="&#x2026;" horiz-adv-x="837" 
d="M112 51q0 26 18 42t42 16t42.5 -16t18.5 -42t-18.5 -43t-42.5 -17t-42 17t-18 43zM359 51q0 26 17.5 42t43.5 16q25 0 42.5 -16t17.5 -42t-17.5 -43t-42.5 -17q-26 0 -43.5 17t-17.5 43zM607 51q0 26 17 42t43 16q25 0 41.5 -16t16.5 -42t-16.5 -43t-41.5 -17
q-26 0 -43 17t-17 43z" />
    <glyph glyph-name="perthousand" unicode="&#x2030;" horiz-adv-x="1136" 
d="M353 535q0 -36 -12 -68t-33 -56.5t-50.5 -38.5t-64.5 -14q-37 0 -67 14t-51 38t-32.5 56t-11.5 68t12 68t34 56t51.5 38t65.5 14q35 0 64.5 -13.5t50.5 -37t32.5 -55.5t11.5 -69zM287 534q0 51 -26.5 84t-71.5 33q-43 0 -67.5 -32t-24.5 -84t27.5 -85t69.5 -33t67.5 33
t25.5 84zM731 166q0 -37 -12 -69.5t-33 -56.5t-50.5 -37.5t-64.5 -13.5q-36 0 -65.5 13.5t-50.5 37t-33 55.5t-12 68q0 38 12 70t33.5 55.5t51.5 37t65 13.5t64 -13.5t50 -37t33 -55t12 -67.5zM665 160q0 56 -26 88t-68 32t-68.5 -32t-26.5 -83q0 -53 27 -85t69 -32
q45 0 69 30.5t24 81.5zM1104 166q0 -37 -12 -69.5t-33 -56.5t-50.5 -37.5t-64.5 -13.5t-65 13.5t-51.5 37t-33.5 55.5t-12 68q0 38 12.5 70t34 55.5t51.5 37t65 13.5t64 -13.5t50 -37t33 -55t12 -67.5zM1038 160q0 56 -26.5 88t-67.5 32q-43 0 -69.5 -32.5t-26.5 -82.5
q0 -53 27.5 -85t69.5 -32q45 0 69 30.5t24 81.5zM674 701q-63 -93 -124 -179.5t-120.5 -171t-119 -171t-120.5 -179.5h-86l486 701h84z" />
    <glyph glyph-name="guilsinglleft" unicode="&#x2039;" horiz-adv-x="275" 
d="M249 68l-67 -29l-152 207l152 211l69 -24l-130 -184z" />
    <glyph glyph-name="guilsinglright" unicode="&#x203a;" horiz-adv-x="274" 
d="M154 249l-130 184l70 24l151 -211l-151 -207l-66 29z" />
    <glyph glyph-name="fraction" unicode="&#x2044;" horiz-adv-x="196" 
d="M-95 -57l-69 13l454 808l71 -15z" />
    <glyph glyph-name="Euro" unicode="&#x20ac;" horiz-adv-x="534" 
d="M341 356v-67h-245q3 -43 16.5 -84.5t39 -74t63.5 -52.5t90 -20q51 0 89.5 21t65.5 54l57 -53q-36 -46 -90.5 -71.5t-125.5 -25.5q-79 0 -134 33.5t-90 86t-51 117t-16 127.5q0 71 17.5 138.5t54.5 120t95 85t140 32.5q72 0 118 -25.5t82 -70.5q-12 -10 -17.5 -15.5
l-10.5 -10.5t-11 -10.5t-18 -15.5q-29 32 -62 52.5t-83 20.5q-62 0 -104.5 -29.5t-69 -73.5t-38 -95t-11.5 -94h249z" />
    <glyph glyph-name="uni2113" unicode="&#x2113;" horiz-adv-x="499" 
d="M416 42h-4q-29 -28 -63 -42t-68 -14q-57 0 -92 33t-35 99v25v74l-55 -55l-31 41l86 85v250q0 88 36 132.5t93 44.5q50 0 81 -33.5t31 -96.5v-10.5t-1 -10.5q-7 -69 -51 -143t-113 -148v-145q0 -10 1 -18t3 -16q8 -28 27 -37.5t36 -9.5q18 0 41 9.5t49 30.5zM330 567
q0 40 -13.5 66.5t-33.5 26.5q-21 0 -37 -26t-16 -85v-203q53 62 76.5 117.5t23.5 103.5z" />
    <glyph glyph-name="trademark" unicode="&#x2122;" horiz-adv-x="896" 
d="M365 644h-132v-352h-69v352h-133v62h334v-62zM883 292h-69v318l-131 -318h-44l-130 320v-320h-69v414h99l123 -301l125 301h96v-414z" />
    <glyph glyph-name="uni2126" unicode="&#x2126;" horiz-adv-x="707" 
d="M415 0v184q45 7 78.5 27.5t56.5 50.5t34.5 68t11.5 80q0 52 -18.5 95.5t-51 74.5t-77 48t-95.5 17t-95.5 -18t-77.5 -49.5t-51.5 -74.5t-18.5 -93q0 -41 11.5 -79.5t34 -69t56.5 -51t79 -26.5v-184h-261v69h181v60q-42 14 -76 43.5t-57 67.5t-35.5 82.5t-12.5 89.5
q0 68 25.5 124t69.5 96.5t103 63t125 22.5t124.5 -22.5t102.5 -63t69.5 -96.5t25.5 -124q0 -45 -14 -90t-39 -83.5t-57.5 -67.5t-70.5 -42v-60h181v-69h-261z" />
    <glyph glyph-name="estimated" unicode="&#x212e;" horiz-adv-x="592" 
d="M158 256v-172q27 -26 61.5 -40.5t76.5 -14.5q60 0 104.5 27.5t82.5 94.5l45 -28q-24 -37 -49 -63.5t-52.5 -43.5t-59.5 -25t-71 -8q-58 0 -106 21.5t-82 59t-52.5 88t-18.5 109.5t18.5 109t52.5 87t82 58t106 21t105.5 -20.5t81.5 -57.5t53 -88.5t19 -113.5h-397z
M434 302v136q-31 29 -64 42t-75 13q-39 0 -74.5 -14.5t-62.5 -41.5v-135h276z" />
    <glyph glyph-name="partialdiff" unicode="&#x2202;" horiz-adv-x="491" 
d="M453 361q0 -36 -3.5 -78t-12 -83.5t-24.5 -79.5t-41 -67t-61 -46.5t-84 -17.5t-85 18.5t-62.5 49.5t-39 71.5t-13.5 84.5t13 82.5t38 68t61.5 46.5t82.5 17q49 0 87 -19t72 -54q3 44 -2 96.5t-24 97.5t-53.5 75.5t-91.5 30.5q-64 0 -109 -45l-42 48q35 32 70 47t78 15
q72 0 119.5 -34t75.5 -86.5t39.5 -115.5t11.5 -122zM376 277q-28 35 -66 60t-82 25q-31 0 -55 -12.5t-40.5 -33.5t-25 -48.5t-8.5 -56.5q0 -28 8 -56.5t24 -51.5t40.5 -37.5t56.5 -14.5q41 0 68.5 23t45 57.5t25.5 74t9 71.5z" />
    <glyph glyph-name="uni2206" unicode="&#x2206;" horiz-adv-x="706" 
d="M27 0l282 710h84l287 -710h-653zM350 624q-56 -135 -109 -274.5t-103 -276.5h427z" />
    <glyph glyph-name="product" unicode="&#x220f;" horiz-adv-x="588" 
d="M503 -211v924h-419v-924h-75v994h569v-994h-75z" />
    <glyph glyph-name="summation" unicode="&#x2211;" horiz-adv-x="554" 
d="M9 -211v61l322 440l-309 433v60h528v-70h-431l302 -423l-319 -431h459v-70h-552z" />
    <glyph glyph-name="minus" unicode="&#x2212;" horiz-adv-x="594" 
d="M552 269h-510v68h510v-68z" />
    <glyph glyph-name="uni2215" unicode="&#x2215;" horiz-adv-x="179" 
d="M-103 -31l-61 31l446 750l62 -32z" />
    <glyph glyph-name="uni2219" unicode="&#x2219;" horiz-adv-x="204" 
d="M158 314q0 -23 -14 -40t-43 -17q-25 0 -40.5 17t-15.5 40q0 24 15.5 41.5t40.5 17.5q29 0 43 -17.5t14 -41.5z" />
    <glyph glyph-name="radical" unicode="&#x221a;" horiz-adv-x="531" 
d="M340 -211h-73l-160 333l-46 -21l-27 59l108 49l149 -317l183 891h74z" />
    <glyph glyph-name="infinity" unicode="&#x221e;" horiz-adv-x="733" 
d="M696 250q0 -29 -10 -56t-28.5 -47.5t-45 -32.5t-59.5 -12q-28 0 -54 9.5t-49 24.5t-44.5 33.5t-40.5 36.5q-19 -18 -40 -36.5t-44 -33.5t-48.5 -24.5t-53.5 -9.5q-31 0 -57.5 11.5t-45 31.5t-29 47t-10.5 58q0 30 10 57.5t28.5 48t44.5 33t57 12.5q29 0 56.5 -11
t51.5 -27.5t44.5 -36t36.5 -35.5q17 19 38.5 39t46.5 36t53 26t58 10q31 0 55.5 -12t42 -33t27 -48.5t9.5 -58.5zM629 251q0 35 -19 59t-57 24q-20 0 -40 -8.5t-38 -21t-34 -27.5t-30 -29q15 -14 31.5 -28t34.5 -25t38 -18t41 -7q34 0 53.5 22.5t19.5 58.5zM322 250
q-13 12 -30 26.5t-35.5 27t-39 21t-41.5 8.5q-35 0 -53.5 -23.5t-18.5 -58.5q0 -36 19 -58.5t57 -22.5q21 0 41 7.5t38 19t34 26t29 27.5z" />
    <glyph glyph-name="integral" unicode="&#x222b;" horiz-adv-x="332" 
d="M94 -161q11 2 17 17t8.5 34t3 37t0.5 27v613q0 30 3 67.5t14.5 70.5t34.5 55.5t64 22.5q14 0 28.5 -3t26.5 -9.5t20 -16.5t8 -25q0 -17 -10 -27.5t-27 -10.5q-13 0 -20.5 4.5t-13 10.5t-10.5 12.5t-13 10.5q-11 -2 -17 -17t-8.5 -34.5t-3 -37.5t-0.5 -26v-572
q0 -29 -2 -72t-13 -83t-33.5 -68.5t-64.5 -28.5q-11 0 -24 3t-24.5 9.5t-19.5 16t-8 23.5t8.5 24.5t23.5 10.5q11 0 18 -4t12 -9.5t10 -12t12 -12.5z" />
    <glyph glyph-name="approxequal" unicode="&#x2248;" horiz-adv-x="574" 
d="M551 407q-2 -27 -11.5 -53.5t-26.5 -47.5t-42 -33.5t-58 -12.5q-31 0 -64.5 11.5t-66.5 25t-63.5 25t-57.5 11.5q-38 0 -58 -23.5t-25 -56.5h-54q4 28 13.5 54.5t25.5 47t40 33t57 12.5t67 -11.5t67.5 -25t65.5 -25t61 -11.5q36 0 53.5 23.5t22.5 56.5h54zM551 238
q-2 -27 -11.5 -53.5t-26.5 -47.5t-42 -33.5t-58 -12.5q-31 0 -64.5 11.5t-66.5 25t-63.5 25t-57.5 11.5q-38 0 -58 -23.5t-25 -56.5h-54q4 28 13.5 54.5t25.5 47t40 33t57 12.5t67 -11.5t67.5 -25t65.5 -25t61 -11.5q36 0 53.5 23.5t22.5 56.5h54z" />
    <glyph glyph-name="notequal" unicode="&#x2260;" horiz-adv-x="587" 
d="M262 118l-75 -144l-60 33l60 111h-145v68h181l63 122h-243v68h280l77 146l59 -34l-60 -112h146v-68h-183l-62 -122h244v-68h-282z" />
    <glyph glyph-name="lessequal" unicode="&#x2264;" horiz-adv-x="640" 
d="M69 298v69l502 190v-74l-400 -151l400 -148v-74zM69 6v68h502v-68h-502z" />
    <glyph glyph-name="greaterequal" unicode="&#x2265;" horiz-adv-x="640" 
d="M69 110v74l404 148l-404 151v74l502 -190v-69zM69 6v68h502v-68h-502z" />
    <glyph glyph-name="lozenge" unicode="&#x25ca;" horiz-adv-x="502" 
d="M284 -35h-67l-170 390l170 390h67l171 -390zM251 661l-129 -306l129 -305l129 306z" />
    <glyph glyph-name="fi" unicode="&#xfb01;" horiz-adv-x="561" 
d="M329 658q-28 10 -51 10q-48 0 -67 -29.5t-19 -85.5v-71h121v-69h-121v-413h-79v413h-98l98 71v73q0 96 42 137.5t113 41.5q18 0 33.5 -3t27.5 -7v-68zM465 0h-81v482h81v-482zM363 637q0 27 18 44t42 17q26 0 43.5 -17t17.5 -44q0 -23 -17.5 -41t-43.5 -18q-24 0 -42 18
t-18 41z" />
    <glyph glyph-name="fl" unicode="&#xfb02;" horiz-adv-x="523" 
d="M329 658q-28 10 -51 10q-48 0 -67 -29.5t-19 -85.5v-71h121v-69h-121v-413h-79v413h-98l98 71v73q0 96 42 137.5t113 41.5q18 0 33.5 -3t27.5 -7v-68zM446 0h-81v732h81v-732z" />
    </font>
</defs>
</svg>
